<svg width="171" height="203" viewBox="0 0 171 203" fill="none" xmlns="http://www.w3.org/2000/svg">
<path d="M116.537 202.4H101.028L46.3711 70.012H75.3074L108.404 154.551L141.501 70.012H170.438L116.537 202.4Z" fill="url(#paint0_linear_77_1698)" style=""/>
<path d="M5 2.5H2.5V5V137.388V139.888H5H57.0096C73.5916 139.888 86.4879 136.683 95.28 129.859C104.192 122.943 108.493 112.624 108.493 99.3738C108.493 91.1099 106.353 83.8977 101.971 77.8667C98.7842 73.3894 94.7495 70.0589 89.9106 67.8898C93.5332 65.6003 96.4677 62.6839 98.664 59.1268C101.867 53.9393 103.387 47.5742 103.387 40.1774C103.387 36.0232 102.783 32.0446 101.565 28.254C100.319 24.3782 98.0758 20.4095 94.9355 16.3498C91.6536 11.9375 86.5827 8.6198 80.0047 6.24859C73.3415 3.72033 65.3374 2.5 56.064 2.5H5ZM74.8752 86.9207L74.9105 86.9575L74.9473 86.9928C77.5873 89.5272 78.9068 92.6489 78.9068 96.5369C78.9068 100.752 77.5993 103.996 75.1 106.495C72.8906 108.704 68.9121 110.113 62.4942 110.113H33.5994V82.9612H62.4942C68.5655 82.9612 72.5046 84.4513 74.8752 86.9207ZM58.9008 55.4552H33.5994V32.0863H58.9008C64.4252 32.0863 68.1044 33.2225 70.3709 35.0702C72.5396 36.8381 73.8004 39.5783 73.8004 43.7708C73.8004 46.8948 72.7336 49.6343 70.5019 52.0875C68.5495 54.1175 64.9243 55.4552 58.9008 55.4552Z" fill="white" stroke="#1D0003" style="fill:white;fill-opacity:1;stroke:#1D0003;stroke:color(display-p3 0.1137 0.0000 0.0118);stroke-opacity:1;" stroke-width="5"/>
<defs>
<linearGradient id="paint0_linear_77_1698" x1="108.404" y1="70.012" x2="108.404" y2="202.4" gradientUnits="userSpaceOnUse">
<stop stop-color="#B08831" style="stop-color:#B08831;stop-color:color(display-p3 0.6902 0.5333 0.1922);stop-opacity:1;"/>
<stop offset="0.561423" stop-color="#FBF199" style="stop-color:#FBF199;stop-color:color(display-p3 0.9843 0.9451 0.6000);stop-opacity:1;"/>
<stop offset="1" stop-color="#EBD67D" style="stop-color:#EBD67D;stop-color:color(display-p3 0.9216 0.8392 0.4902);stop-opacity:1;"/>
</linearGradient>
</defs>
</svg>
