<svg width="61" height="63" viewBox="0 0 61 63" fill="none" xmlns="http://www.w3.org/2000/svg">
<g opacity="0.5" clip-path="url(#clip0_77_599)">
<path d="M13.4215 24.0698C9.66307 24.0698 6.60547 27.1274 6.60547 30.8858C6.60547 34.6442 9.66307 37.7018 13.4215 37.7018C17.1798 37.7018 20.2374 34.6442 20.2374 30.8858C20.2374 27.1274 17.1798 24.0698 13.4215 24.0698ZM13.4215 33.9962C11.7065 33.9962 10.3111 32.6009 10.3111 30.8858C10.3111 29.1707 11.7065 27.7755 13.4215 27.7755C15.1364 27.7755 16.5318 29.1707 16.5318 30.8858C16.5318 32.6009 15.1364 33.9962 13.4215 33.9962Z" fill="url(#paint0_linear_77_599)" style=""/>
<path d="M25.4912 40.1682C21.7329 40.1682 18.6753 43.2258 18.6753 46.9842C18.6753 50.7425 21.7329 53.8001 25.4912 53.8001C29.2495 53.8001 32.3071 50.7425 32.3071 46.9842C32.3071 43.2258 29.2495 40.1682 25.4912 40.1682ZM25.4912 50.0944C23.7762 50.0944 22.3809 48.6992 22.3809 46.9841C22.3809 45.269 23.7762 43.8737 25.4912 43.8737C27.2062 43.8737 28.6015 45.269 28.6015 46.9841C28.6016 48.6992 27.2062 50.0944 25.4912 50.0944Z" fill="url(#paint1_linear_77_599)" style=""/>
<path d="M61.2929 40.1091C61.2806 40.097 61.2684 40.0852 61.2559 40.0733L54.84 34.019C58.4315 31.3033 60.054 26.4964 58.5785 22.0496C51.6227 1.06406 24.8939 -5.59368 8.96741 10.0922C-2.96072 21.8401 -2.84942 40.7825 8.46785 52.4472C18.6349 62.9264 34.6552 64.3981 46.4792 56.6582C52.0163 53.0349 49.4707 44.41 42.8449 44.41C37.8963 44.41 37.0647 37.491 41.7391 36.3063L53.0425 48.2854C53.0543 48.2979 53.0662 48.3102 53.0784 48.3225C55.3443 50.5936 59.025 50.5996 61.2968 48.3277C63.5684 46.0562 63.5684 42.3795 61.2929 40.1091ZM37.3527 45.928C38.8414 47.3387 40.7918 48.1155 42.845 48.1155C45.8042 48.1155 46.92 51.9415 44.45 53.5578C34.1013 60.3321 20.0461 59.0595 11.1274 49.867C1.12428 39.5568 1.1832 23.0108 11.6087 12.7559C25.579 -0.985784 48.9452 4.76327 55.0613 23.216C56.0976 26.3392 54.8026 29.7329 52.0865 31.4207L41.7947 21.7089C42.4178 18.7173 41.5548 15.5635 39.2938 13.3025C36.4559 10.4645 27.5157 9.04999 23.6412 8.62913C22.4661 8.50115 21.4711 9.49457 21.5989 10.6714C22.0232 14.561 23.4295 23.4809 26.2724 26.324C28.535 28.5863 31.6904 29.4475 34.6797 28.8246L39.0148 33.4189C34.3985 35.9249 33.4612 42.2401 37.3527 45.928ZM28.8926 23.7037C27.4963 22.3074 26.2488 16.997 25.5901 12.6202C29.967 13.2788 35.2774 14.5264 36.6736 15.9227C38.8235 18.0726 38.8238 21.5531 36.6736 23.7037C34.5285 25.849 31.0472 25.8583 28.8926 23.7037ZM58.6768 45.7075C57.8602 46.524 56.5387 46.5277 55.7174 45.7207C54.7689 44.7155 39.13 28.1415 38.2586 27.2181C38.9896 26.6752 39.6448 26.02 40.1885 25.2882L58.6912 42.7482C59.499 43.5704 59.4945 44.8896 58.6768 45.7075Z" fill="url(#paint2_linear_77_599)" style=""/>
</g>
<defs>
<linearGradient id="paint0_linear_77_599" x1="13.4215" y1="24.0698" x2="13.4215" y2="37.7018" gradientUnits="userSpaceOnUse">
<stop stop-color="#B08831" style="stop-color:#B08831;stop-color:color(display-p3 0.6902 0.5333 0.1922);stop-opacity:1;"/>
<stop offset="0.561423" stop-color="#FBF199" style="stop-color:#FBF199;stop-color:color(display-p3 0.9843 0.9451 0.6000);stop-opacity:1;"/>
<stop offset="1" stop-color="#EBD67D" style="stop-color:#EBD67D;stop-color:color(display-p3 0.9216 0.8392 0.4902);stop-opacity:1;"/>
</linearGradient>
<linearGradient id="paint1_linear_77_599" x1="25.4912" y1="40.1682" x2="25.4912" y2="53.8001" gradientUnits="userSpaceOnUse">
<stop stop-color="#B08831" style="stop-color:#B08831;stop-color:color(display-p3 0.6902 0.5333 0.1922);stop-opacity:1;"/>
<stop offset="0.561423" stop-color="#FBF199" style="stop-color:#FBF199;stop-color:color(display-p3 0.9843 0.9451 0.6000);stop-opacity:1;"/>
<stop offset="1" stop-color="#EBD67D" style="stop-color:#EBD67D;stop-color:color(display-p3 0.9216 0.8392 0.4902);stop-opacity:1;"/>
</linearGradient>
<linearGradient id="paint2_linear_77_599" x1="31.5" y1="1.44897" x2="31.5" y2="61.5509" gradientUnits="userSpaceOnUse">
<stop stop-color="#B08831" style="stop-color:#B08831;stop-color:color(display-p3 0.6902 0.5333 0.1922);stop-opacity:1;"/>
<stop offset="0.561423" stop-color="#FBF199" style="stop-color:#FBF199;stop-color:color(display-p3 0.9843 0.9451 0.6000);stop-opacity:1;"/>
<stop offset="1" stop-color="#EBD67D" style="stop-color:#EBD67D;stop-color:color(display-p3 0.9216 0.8392 0.4902);stop-opacity:1;"/>
</linearGradient>
<clipPath id="clip0_77_599">
<rect width="63" height="63" fill="white" style="fill:white;fill-opacity:1;"/>
</clipPath>
</defs>
</svg>
