<svg width="134" height="85" viewBox="0 0 134 85" fill="none" xmlns="http://www.w3.org/2000/svg">
<g clip-path="url(#clip0_273_30)">
<path d="M127.935 12.8214C127.887 12.4922 127.795 12.1708 127.663 11.8651C127.369 11.2151 126.875 10.6736 126.251 10.3177C126.118 10.2358 125.979 10.1635 125.835 10.101L125.613 9.9958C125.475 9.93081 125.341 9.86272 125.213 9.79463C124.963 9.66319 124.722 9.51749 124.49 9.35826C124.039 9.05368 123.628 8.69504 123.266 8.29054C122.885 7.86964 122.49 7.36208 122.062 6.79573C121.606 6.18679 121.118 5.60209 120.6 5.04406C120.305 4.73501 119.992 4.44358 119.662 4.17131C119.485 4.02606 119.301 3.88971 119.111 3.76279L118.817 3.56781C118.72 3.50901 118.623 3.45949 118.526 3.40379C116.972 2.5172 115.199 2.07671 113.407 2.13181C112.987 2.1497 112.569 2.19415 112.155 2.26489L108.322 0.185156C108.076 0.0514959 107.797 -0.0119575 107.516 0.00185761C107.236 0.0156727 106.965 0.106214 106.733 0.263405C106.501 0.420596 106.318 0.638264 106.204 0.892186C106.091 1.14611 106.05 1.42632 106.088 1.70163L106.535 4.96359C107.311 4.7137 108.017 4.29005 108.6 3.72565C108.614 4.12597 108.537 4.52425 108.375 4.89115C108.212 5.25805 107.968 5.58423 107.662 5.84562C107.486 6.10953 107.289 6.35897 107.073 6.59148C106.554 7.14104 105.97 7.62728 105.334 8.03986L105.318 8.0739C104.586 9.65846 103.797 11.3142 102.658 12.6759C99.9766 15.8822 95.7241 16.9809 91.6814 16.4609C89.4225 16.1426 87.2142 15.5394 85.1103 14.6659C82.9382 13.7744 80.8287 12.7405 78.7958 11.5711C76.6741 10.3225 74.487 9.18608 72.2435 8.16675C71.9556 8.03986 71.6678 7.91606 71.3736 7.79537L70.9168 7.61277L70.4568 7.46113L69.5337 7.15164C69.2208 7.05261 68.9079 6.98452 68.595 6.90096C67.362 6.57951 66.1071 6.34679 64.8401 6.20462C62.3195 5.95714 59.777 6.0362 57.2771 6.43982C54.8247 6.84664 52.4155 7.47654 50.0802 8.32149C45.4273 9.97104 41.0872 12.2148 36.8098 14.474C34.6726 15.6067 32.548 16.7518 30.4045 17.8443C29.3313 18.3828 28.2549 18.9244 27.1659 19.4258C26.077 19.9271 24.9756 20.444 23.8773 20.9268C21.6869 21.88 19.4371 22.7527 17.0965 23.0684C15.9362 23.2377 14.7545 23.1999 13.6076 22.957C13.0398 22.8271 12.4887 22.6339 11.9649 22.3813C11.4443 22.1176 10.9535 21.8002 10.5004 21.4343C10.0532 21.0463 9.62898 20.6329 9.23003 20.1964C8.82837 19.7635 8.46608 19.2964 8.14737 18.8006C7.51187 17.7969 7.03197 16.7047 6.72364 15.5603C6.1095 13.2392 5.93969 10.825 6.22298 8.44219C5.85644 10.8262 5.94239 13.257 6.47644 15.6098C6.75324 16.7941 7.20671 17.931 7.82194 18.9832C8.13338 19.5096 8.49262 20.0068 8.89522 20.4687C9.29362 20.9351 9.71884 21.3784 10.1688 21.7964C10.6404 22.2047 11.1543 22.5626 11.702 22.8641C12.2607 23.1615 12.8517 23.3951 13.4637 23.5605C14.6807 23.8642 15.943 23.9492 17.1904 23.8112C19.6749 23.5636 22.0217 22.7373 24.2841 21.8459C25.4168 21.3941 26.5276 20.9175 27.6447 20.4502C28.7618 19.9828 29.8726 19.4722 30.974 18.9646C33.1644 17.9402 35.3547 16.8663 37.5169 15.811C41.857 13.7065 46.2127 11.6515 50.7436 10.2186C52.9856 9.49573 55.2899 8.97776 57.6276 8.67121C59.9269 8.37969 62.2548 8.38697 64.5522 8.69287C65.6881 8.86273 66.8101 9.11303 67.9097 9.44182C68.182 9.52848 68.4636 9.59657 68.7295 9.6956L69.5212 9.98342L69.9186 10.1289L70.2972 10.296C70.5601 10.4167 70.8229 10.5374 71.0857 10.6643C73.205 11.7229 75.2658 12.8924 77.2594 14.1676C79.3689 15.48 81.5641 16.6524 83.8305 17.6772C86.1686 18.7396 88.6345 19.502 91.1682 19.9457C92.4877 20.1596 93.824 20.2549 95.1609 20.2304C95.3268 20.2304 95.5458 20.2057 95.7148 20.1902L95.9119 20.1685C95.4457 20.574 94.9732 20.9763 94.4913 21.3662C93.1196 22.4674 91.684 23.4884 90.1919 24.4239C88.6974 25.3755 87.1526 26.2474 85.564 27.036C84.4939 27.5745 83.4018 28.0758 82.3004 28.5494C79.2074 27.532 76.1863 26.312 73.2573 24.8975C71.503 24.0618 69.7694 23.1747 68.0568 22.2359L65.4659 20.8092C64.5835 20.3326 63.6813 19.889 62.7593 19.4784C60.9162 18.6436 58.9896 18.0026 57.0111 17.5658C55.023 17.1297 52.981 16.9838 50.9501 17.1325C49.9404 17.2134 48.9383 17.3696 47.9524 17.5998L47.2171 17.7886L46.4974 18.0052C46.0124 18.1414 45.5587 18.3147 45.0737 18.488C44.9203 18.5437 44.7608 18.6056 44.6168 18.6644V18.649L44.523 18.7047C42.86 19.3774 41.2663 20.2065 39.7636 21.1805C36.4528 23.3472 33.551 26.0705 31.1899 29.2271C33.678 26.2115 36.6802 23.6496 40.0609 21.6572C40.3738 21.4715 40.7023 21.2951 41.0278 21.1217C42.5802 23.4434 44.3451 25.6189 46.3003 27.6209C48.2906 29.6732 50.4555 31.5525 52.7712 33.238C53.4721 33.7456 54.1845 34.2325 54.9084 34.6988L54.2388 34.7452C50.6013 34.9546 46.9544 34.9443 43.3183 34.7143C36.0212 34.2841 28.7399 33.2226 21.4366 32.5046C28.6929 33.5847 35.8929 35.0052 43.2244 35.8068C46.9004 36.2213 50.5985 36.4146 54.2982 36.3855C55.3851 36.3731 56.4719 36.3442 57.5587 36.2988C60.8619 38.1528 64.3615 39.6411 67.9942 40.7368C73.3955 42.338 79.0158 43.0981 84.6535 42.9899C90.2315 42.8713 95.7606 41.9325 101.059 40.2045C95.7115 41.573 90.1877 42.1477 84.6691 41.9098C79.2129 41.6613 73.829 40.5744 68.7108 38.6881C66.6459 37.9114 64.6348 37.0017 62.6904 35.9646C63.5947 35.881 64.499 35.7882 65.4002 35.6799C71.3773 35.0048 77.2566 33.655 82.9231 31.6566C83.0295 31.6906 83.1327 31.7309 83.236 31.768C87.0597 33.0554 91.0962 33.9715 95.2861 34.0489C97.403 34.0928 99.5173 33.8797 101.582 33.4144C103.685 32.9382 105.707 32.1615 107.583 31.1088C108.523 30.5799 109.424 29.9852 110.278 29.3293C111.114 28.685 111.912 27.9938 112.668 27.2588C113.4 26.5563 114.117 25.8414 114.818 25.0924C115.171 24.718 115.519 24.3342 115.866 23.9319C116.179 23.5791 116.467 23.217 116.767 22.8053H116.802C117.422 22.6605 118.058 22.5908 118.695 22.598C119.314 22.6203 119.929 22.7042 120.532 22.8487L122.565 23.3407C122.741 23.3841 122.928 23.4212 123.11 23.4584C123.352 23.5072 123.598 23.5352 123.845 23.5419C124.005 23.5447 124.166 23.5343 124.324 23.511C124.408 23.511 124.499 23.48 124.587 23.4584L124.724 23.4181C124.788 23.3976 124.849 23.3728 124.909 23.3438C125.038 23.2862 125.162 23.2168 125.278 23.1365C125.369 23.0653 125.457 22.991 125.541 22.9106C125.61 22.8425 125.675 22.7702 125.735 22.6939C125.79 22.6277 125.841 22.5584 125.889 22.4866C126.149 22.0721 126.348 21.6229 126.48 21.1527C126.602 20.7566 126.686 20.379 126.765 20.0169L126.871 19.4908L126.918 19.2648L126.971 19.042L127.206 18.0021C127.356 17.3089 127.494 16.6188 127.625 15.9286L127.816 14.8918C127.872 14.5297 127.941 14.2729 127.988 13.6972C128 13.4043 127.982 13.1109 127.935 12.8214ZM65.0404 33.498C63.2797 33.7972 61.5066 34.0489 59.7209 34.2531C57.997 33.1722 56.3484 31.978 54.7864 30.6786C52.7428 28.975 50.852 27.0998 49.1352 25.0739C47.6087 23.2947 46.2375 21.3907 45.0361 19.3824L45.349 19.2772C45.8121 19.138 46.269 18.9677 46.7415 18.8749L47.4455 18.6985L48.1527 18.553C49.0947 18.379 50.0487 18.2755 51.0064 18.2435C52.9216 18.1944 54.8337 18.4217 56.6826 18.9182C58.534 19.4196 60.3266 20.1136 62.0302 20.9887C62.8917 21.4178 63.7345 21.882 64.5585 22.3813L67.0618 23.9288C68.7535 24.9604 70.4756 25.9476 72.2279 26.8905C74.315 28.0078 76.449 29.0569 78.6425 29.9854C74.2274 31.5541 69.6795 32.7297 65.0529 33.498H65.0404ZM123.776 20.8494H123.723C123.744 20.8405 123.766 20.8343 123.789 20.8308C123.79 20.837 123.79 20.8432 123.789 20.8494H123.776ZM121.739 14.2481C122.072 14.5248 122.44 14.7569 122.835 14.9383C123.312 15.1501 123.806 15.323 124.311 15.4551C124.238 16.1174 124.158 16.7787 124.071 17.4389L123.923 18.4385L123.88 18.7232L123.845 19.0111L123.789 19.5093C123.751 19.8188 123.711 20.1283 123.654 20.4037C123.625 20.5545 123.587 20.7034 123.539 20.8494H123.47L122.982 20.7751L120.898 20.4935C120.124 20.387 119.341 20.3663 118.563 20.4316C118.165 20.4671 117.769 20.5323 117.381 20.6266C116.974 20.7256 116.676 20.8277 116.335 20.9361C115.709 21.1503 115.063 21.3077 114.408 21.4065C113.821 21.5135 113.217 21.4902 112.64 21.3384C111.396 21.0256 110.307 20.2781 109.577 19.2339C109.199 18.7068 108.982 18.084 108.951 17.4389C108.945 16.7627 109.165 16.1034 109.577 15.5634C109.028 16.0453 108.668 16.7026 108.56 17.4203C108.464 18.1617 108.589 18.9147 108.919 19.5867C109.249 20.2642 109.705 20.8734 110.265 21.3817C110.646 21.7271 111.066 22.0272 111.517 22.2761C110.922 22.9539 110.296 23.6286 109.658 24.2847C109.02 24.9408 108.366 25.5814 107.687 26.1571C107.008 26.7305 106.29 27.2558 105.537 27.7292C102.53 29.6295 98.9377 30.5734 95.236 30.6755C92.5483 30.7283 89.864 30.4602 87.2412 29.8771C88.8767 29.1529 90.4788 28.3472 92.0475 27.46C93.7059 26.5316 95.3076 25.5075 96.8444 24.393C98.3955 23.2776 99.8763 22.0694 101.278 20.7751C102.681 19.4664 104.003 18.0753 105.237 16.6095H105.221C106.035 15.7552 106.733 14.8002 107.299 13.7684C108.025 12.5119 108.693 11.2265 109.304 9.91223C109.458 9.58418 109.617 9.25304 109.752 8.92189L109.952 8.46695C109.987 8.38581 110.028 8.30721 110.074 8.23174C110.121 8.15183 110.172 8.07436 110.227 7.99963C110.299 7.91607 110.371 7.8325 110.44 7.74585C110.589 7.58022 110.752 7.42797 110.928 7.2909C111.295 7.00244 111.706 6.77365 112.146 6.61313C112.61 6.45147 113.094 6.35358 113.585 6.32222C114.088 6.28829 114.594 6.32581 115.087 6.43364C115.586 6.53254 116.067 6.70465 116.514 6.94428L116.683 7.02784L116.83 7.1145C116.927 7.17639 117.024 7.24448 117.124 7.31876C117.335 7.47829 117.536 7.65092 117.725 7.8356C118.173 8.27691 118.598 8.74071 118.998 9.22518C119.446 9.74821 119.915 10.3177 120.497 10.8995C121.097 11.5011 121.769 12.0271 122.5 12.4655C122.857 12.6776 123.227 12.8688 123.607 13.038C123.792 13.1216 123.977 13.199 124.158 13.2732L124.418 13.3754C124.434 13.3816 124.451 13.3868 124.468 13.3908C124.49 13.3908 124.496 13.3908 124.468 13.3908C124.458 13.3735 124.452 13.3546 124.449 13.3351C124.449 13.3351 124.449 13.3351 124.474 13.3723C124.482 13.3985 124.487 13.4255 124.49 13.4527C124.032 13.5886 123.563 13.6859 123.088 13.7436C122.731 13.7811 122.371 13.7707 122.018 13.7127C121.646 13.6519 121.293 13.508 120.985 13.2918C121.165 13.6633 121.427 13.9901 121.752 14.2481H121.739Z" fill="url(#paint0_linear_273_30)" style=""/>
<path opacity="0.82" d="M65.3753 37.7502C65.7759 37.7502 66.1701 37.7719 66.555 37.8091C65.2304 37.2417 63.9339 36.6227 62.6656 35.9521L57.5464 36.2895C58.9639 37.088 60.422 37.8121 61.9052 38.4559C63.0028 37.9944 64.1827 37.7545 65.3753 37.7502Z" fill="black" fill-opacity="0.36" style="fill:black;fill-opacity:0.36;"/>
<path opacity="0.82" d="M73.8238 31.6843C75.6065 31.6716 77.3645 32.097 78.9399 32.9223C80.2708 32.5323 81.5892 32.1021 82.895 31.6317L78.6457 29.9822C76.9039 30.6011 75.1307 31.1613 73.3263 31.6627H73.3013L73.3607 31.6843C73.5172 31.6905 73.6705 31.6843 73.8238 31.6843Z" fill="black" fill-opacity="0.36" style="fill:black;fill-opacity:0.36;"/>
<path opacity="0.82" d="M94.6037 16.5414C93.4551 17.9691 91.9554 19.0816 90.248 19.7724C90.561 19.8374 90.8582 19.8931 91.168 19.9458C92.4875 20.1596 93.8238 20.2549 95.1607 20.2305C95.3265 20.2305 95.5456 20.2057 95.7145 20.1902L95.9117 20.1686L101.807 13.5735C99.8418 15.4149 97.2697 16.3557 94.6037 16.5414Z" fill="black" fill-opacity="0.36" style="fill:black;fill-opacity:0.36;"/>
<path opacity="0.82" d="M111.52 22.2854C111.351 22.4773 111.126 22.728 110.894 22.9879L110.325 23.6069L109.921 24.0371C111.132 24.9655 112.919 25.6031 114.636 25.2441C114.69 25.1853 114.746 25.1327 114.799 25.0739C115.153 24.6994 115.5 24.3156 115.847 23.9133C116.16 23.5605 116.448 23.1984 116.749 22.7868H116.783H116.811C115.031 22.9845 113.229 22.8138 111.52 22.2854Z" fill="black" fill-opacity="0.36" style="fill:black;fill-opacity:0.36;"/>
</g>
<g clip-path="url(#clip1_273_30)">
<path d="M15.4082 84.9348C15.3048 84.9348 15.1917 84.9335 15.0687 84.931C14.943 84.9259 14.8187 84.9182 14.6957 84.908C14.5728 84.9003 14.4512 84.8888 14.3311 84.8735C14.2109 84.8607 14.1006 84.8428 14 84.8198V80.1802C14.1006 80.1572 14.2109 80.1393 14.3311 80.1265C14.4512 80.1112 14.5728 80.0997 14.6957 80.092C14.8187 80.0818 14.9416 80.0741 15.0645 80.069C15.1847 80.0665 15.2978 80.0652 15.404 80.0652C15.7058 80.0652 15.988 80.0856 16.2506 80.1265C16.516 80.1674 16.7451 80.2377 16.9379 80.3374C17.1307 80.4346 17.283 80.5637 17.3947 80.7247C17.5037 80.8857 17.5582 81.0838 17.5582 81.319C17.5582 81.5823 17.4911 81.7983 17.357 81.967C17.2201 82.1332 17.0385 82.2584 16.8122 82.3428C17.1195 82.4246 17.364 82.555 17.5456 82.7339C17.7272 82.9128 17.818 83.1659 17.818 83.4931C17.818 83.9711 17.6253 84.3315 17.2397 84.5744C16.8541 84.8147 16.2436 84.9348 15.4082 84.9348ZM15.668 82.6649H14.7251V84.3482C14.7781 84.3533 14.8424 84.3584 14.9178 84.3635C14.9849 84.3686 15.0617 84.3724 15.1483 84.375C15.2378 84.3776 15.3397 84.3788 15.4543 84.3788C15.6722 84.3788 15.8776 84.3661 16.0704 84.3405C16.2632 84.3149 16.4322 84.2702 16.5775 84.2063C16.7256 84.1398 16.8429 84.0491 16.9295 83.934C17.019 83.819 17.0637 83.6746 17.0637 83.5008C17.0637 83.3448 17.0301 83.2132 16.9631 83.1058C16.8988 82.9959 16.8052 82.909 16.6823 82.8451C16.5593 82.7812 16.4112 82.7352 16.238 82.7071C16.0676 82.6789 15.8776 82.6649 15.668 82.6649ZM14.7251 80.6518V82.1281H15.492C15.6736 82.1281 15.8455 82.1166 16.0075 82.0936C16.1668 82.0706 16.3065 82.0284 16.4266 81.967C16.544 81.9082 16.6362 81.8303 16.7032 81.7331C16.7703 81.636 16.8038 81.5146 16.8038 81.3689C16.8038 81.2308 16.7689 81.1145 16.699 81.0199C16.6292 80.9254 16.5328 80.8499 16.4099 80.7937C16.2869 80.7349 16.1416 80.6915 15.974 80.6633C15.8091 80.6352 15.6331 80.6212 15.4459 80.6212C15.2615 80.6212 15.1162 80.6237 15.01 80.6288C14.9039 80.6339 14.8089 80.6416 14.7251 80.6518ZM25.1733 84.8965H21.7912V80.1112H24.9847V80.6863H22.5246V82.1051H24.7123V82.6649H22.5246V84.3213H25.1733V84.8965ZM33.2369 84.8965H32.625C32.5133 84.7252 32.3861 84.5335 32.2436 84.3213C32.1011 84.1092 31.9461 83.8893 31.7784 83.6618C31.6136 83.4343 31.4417 83.203 31.2629 82.9678C31.0841 82.7352 30.9067 82.5089 30.7307 82.2891C30.5546 82.0718 30.3842 81.8661 30.2194 81.6718C30.0517 81.4775 29.898 81.3075 29.7583 81.1618V84.8965H29.0417V80.1112H29.6242C29.8589 80.3413 30.1118 80.6097 30.3828 80.9164C30.651 81.2232 30.9165 81.5389 31.1791 81.8635C31.4445 82.1856 31.6946 82.5038 31.9293 82.8183C32.1612 83.1301 32.3582 83.4087 32.5202 83.6541V80.1112H33.2369V84.8965ZM40.6676 84.3213V82.5422H41.3969V84.7776C41.3382 84.7955 41.2516 84.816 41.137 84.839C41.0253 84.862 40.8954 84.885 40.7473 84.908C40.5992 84.931 40.4371 84.9514 40.2611 84.9693C40.0851 84.9847 39.9063 84.9923 39.7247 84.9923C39.3558 84.9923 39.0206 84.9374 38.7188 84.8275C38.417 84.715 38.1586 84.5539 37.9435 84.3443C37.7283 84.1322 37.5607 83.8714 37.4405 83.5621C37.3232 83.2554 37.2645 82.9013 37.2645 82.5C37.2645 82.0987 37.3316 81.7434 37.4657 81.434C37.597 81.1222 37.7758 80.8615 38.0021 80.6518C38.2285 80.4397 38.4939 80.2786 38.7984 80.1687C39.103 80.0562 39.4285 80 39.7749 80C40.0124 80 40.2234 80.0141 40.4078 80.0422C40.5894 80.0703 40.7459 80.1022 40.8772 80.138C41.0085 80.1764 41.1161 80.2134 41.1999 80.2492C41.2809 80.2876 41.3368 80.3157 41.3675 80.3336L41.1328 80.8934C40.9876 80.8039 40.7948 80.7311 40.5545 80.6748C40.3114 80.6161 40.0641 80.5867 39.8127 80.5867C39.5472 80.5867 39.3056 80.6314 39.0876 80.7209C38.8669 80.8078 38.6811 80.9343 38.5302 81.1005C38.3765 81.2641 38.2564 81.4647 38.1698 81.7025C38.0832 81.9402 38.0399 82.206 38.0399 82.5C38.0399 82.7863 38.0776 83.0458 38.153 83.2784C38.2257 83.5135 38.336 83.7155 38.4841 83.8842C38.6322 84.0529 38.8152 84.1833 39.0331 84.2753C39.2511 84.3673 39.5095 84.4133 39.8085 84.4133C40.018 84.4133 40.1968 84.4031 40.3449 84.3827C40.493 84.3597 40.6006 84.3392 40.6676 84.3213ZM49.779 84.8965H48.9785C48.8947 84.6894 48.815 84.4849 48.7396 84.283C48.6642 84.0836 48.5859 83.8804 48.5049 83.6733H46.137L45.6592 84.8965H44.9006C45.1018 84.3903 45.2904 83.9213 45.4664 83.4893C45.6424 83.0598 45.8142 82.6521 45.9819 82.2661C46.1495 81.8801 46.3172 81.5107 46.4848 81.158C46.6497 80.8052 46.8229 80.4563 47.0045 80.1112H47.6751C47.8567 80.4563 48.0299 80.8052 48.1948 81.158C48.3624 81.5107 48.53 81.8801 48.6977 82.2661C48.8653 82.6521 49.0372 83.0598 49.2132 83.4893C49.3892 83.9213 49.5778 84.3903 49.779 84.8965ZM46.3465 83.1212H48.2953C48.1333 82.7198 47.9726 82.3326 47.8134 81.9594C47.6569 81.5836 47.4921 81.2232 47.3188 80.8781C47.1428 81.2232 46.9766 81.5836 46.8201 81.9594C46.6608 82.3326 46.503 82.7198 46.3465 83.1212ZM54.1628 84.3137H56.5769V84.8965H53.4294V80.1112H54.1628V84.3137ZM61.6103 84.4172C62.3731 84.4172 62.7545 84.1782 62.7545 83.7002C62.7545 83.5544 62.7209 83.4292 62.6539 83.3244C62.5868 83.2221 62.4946 83.1327 62.3773 83.056C62.2627 82.9793 62.1314 82.9141 61.9833 82.8604C61.8352 82.8042 61.6774 82.748 61.5097 82.6917C61.3197 82.6329 61.1395 82.5652 60.9691 82.4885C60.7958 82.4144 60.6464 82.3249 60.5206 82.2201C60.3949 82.1178 60.2957 81.9951 60.2231 81.852C60.1504 81.7088 60.1141 81.5363 60.1141 81.3344C60.1141 80.9151 60.2706 80.5879 60.5835 80.3528C60.8936 80.1176 61.3239 80 61.8743 80C62.1901 80 62.4779 80.032 62.7377 80.0959C62.9948 80.1572 63.1847 80.2249 63.3077 80.2991L63.073 80.8436C62.9668 80.7848 62.8089 80.726 62.5994 80.6672C62.3926 80.6109 62.151 80.5828 61.8743 80.5828C61.7318 80.5828 61.6005 80.5956 61.4804 80.6212C61.3602 80.6493 61.2541 80.6915 61.1619 80.7477C61.0725 80.8014 61.0012 80.8717 60.9481 80.9586C60.895 81.0429 60.8685 81.1426 60.8685 81.2577C60.8685 81.3855 60.8964 81.4941 60.9523 81.5836C61.0082 81.6705 61.0864 81.7472 61.187 81.8137C61.2876 81.8801 61.4036 81.9415 61.5349 81.9977C61.669 82.0514 61.8171 82.1063 61.9791 82.1626C62.2054 82.2444 62.4122 82.3275 62.5994 82.4118C62.7894 82.4936 62.9528 82.592 63.0897 82.7071C63.2295 82.8221 63.337 82.9588 63.4125 83.1173C63.4879 83.2758 63.5256 83.4675 63.5256 83.6925C63.5256 84.1117 63.358 84.4338 63.0227 84.6587C62.6874 84.8862 62.2166 85 61.6103 85C61.4036 85 61.2136 84.9872 61.0403 84.9617C60.8671 84.9361 60.712 84.9054 60.5751 84.8696C60.4382 84.8364 60.3209 84.8006 60.2231 84.7623C60.1253 84.7214 60.0484 84.6869 59.9926 84.6587L60.2147 84.1066C60.3292 84.1679 60.5053 84.2357 60.7428 84.3098C60.9775 84.3814 61.2666 84.4172 61.6103 84.4172ZM72.7669 84.8965H72.0334V80.1112H75.1893V80.6863H72.7669V82.1281H74.9169V82.6917H72.7669V84.8965ZM78.7182 82.5C78.7182 82.091 78.7852 81.7293 78.9193 81.4149C79.0507 81.103 79.2309 80.8423 79.46 80.6327C79.6891 80.4231 79.9559 80.2658 80.2605 80.161C80.565 80.0537 80.8877 80 81.2286 80C81.5667 80 81.8852 80.0537 82.1842 80.161C82.4831 80.2658 82.7458 80.4231 82.9721 80.6327C83.1984 80.8423 83.3786 81.103 83.5127 81.4149C83.6468 81.7293 83.7139 82.091 83.7139 82.5C83.7139 82.909 83.6468 83.2707 83.5127 83.5851C83.3786 83.897 83.1984 84.1577 82.9721 84.3673C82.7458 84.5769 82.4831 84.7342 82.1842 84.839C81.8852 84.9463 81.5667 85 81.2286 85C80.8877 85 80.565 84.9463 80.2605 84.839C79.9559 84.7342 79.6891 84.5769 79.46 84.3673C79.2309 84.1577 79.0507 83.897 78.9193 83.5851C78.7852 83.2707 78.7182 82.909 78.7182 82.5ZM79.4893 82.5C79.4893 82.7889 79.5284 83.0521 79.6067 83.2899C79.6877 83.5276 79.8023 83.7296 79.9503 83.8957C80.0984 84.0593 80.28 84.1871 80.4952 84.2791C80.7075 84.3686 80.9478 84.4133 81.216 84.4133C81.4815 84.4133 81.7204 84.3686 81.9327 84.2791C82.1423 84.1871 82.3211 84.0593 82.4692 83.8957C82.62 83.7296 82.7346 83.5276 82.8128 83.2899C82.8939 83.0521 82.9344 82.7889 82.9344 82.5C82.9344 82.2111 82.8939 81.9479 82.8128 81.7101C82.7346 81.4724 82.62 81.2704 82.4692 81.1043C82.3211 80.9407 82.1423 80.8142 81.9327 80.7247C81.7204 80.6327 81.4815 80.5867 81.216 80.5867C80.9478 80.5867 80.7075 80.6327 80.4952 80.7247C80.28 80.8142 80.0984 80.9407 79.9503 81.1043C79.8023 81.2704 79.6877 81.4724 79.6067 81.7101C79.5284 81.9479 79.4893 82.2111 79.4893 82.5ZM90.298 82.8949C90.3791 82.987 90.481 83.1071 90.604 83.2554C90.7269 83.4062 90.854 83.5723 90.9854 83.7538C91.1167 83.9353 91.2452 84.1245 91.3709 84.3213C91.4995 84.5207 91.6098 84.7124 91.702 84.8965H90.9015C90.801 84.7201 90.692 84.5424 90.5746 84.3635C90.4545 84.1846 90.3344 84.0133 90.2142 83.8497C90.0941 83.6861 89.9753 83.5327 89.858 83.3896C89.7378 83.2464 89.6303 83.1224 89.5353 83.0176C89.471 83.0228 89.4039 83.0253 89.3341 83.0253C89.267 83.0253 89.1986 83.0253 89.1287 83.0253H88.4707V84.8965H87.7415V80.1802C87.9483 80.1342 88.1774 80.1035 88.4288 80.0882C88.6831 80.0729 88.9164 80.0652 89.1287 80.0652C89.8636 80.0652 90.4224 80.1917 90.8052 80.4448C91.1907 80.6979 91.3835 81.0749 91.3835 81.5759C91.3835 81.8929 91.2913 82.1639 91.1069 82.3888C90.9253 82.6138 90.6557 82.7825 90.298 82.8949ZM89.1874 80.6518C88.8773 80.6518 88.6384 80.6582 88.4707 80.671V82.4732H88.9946C89.2461 82.4732 89.4724 82.4617 89.6736 82.4387C89.8747 82.4156 90.0438 82.3722 90.1807 82.3083C90.3204 82.2418 90.428 82.1511 90.5034 82.036C90.5788 81.9185 90.6166 81.7625 90.6166 81.5683C90.6166 81.3893 90.5788 81.2398 90.5034 81.1196C90.428 80.9995 90.326 80.9049 90.1974 80.8359C90.0689 80.7669 89.918 80.7183 89.7448 80.6902C89.5716 80.6646 89.3858 80.6518 89.1874 80.6518ZM102.087 84.8965H101.358V82.9755C101.012 82.4847 100.685 81.999 100.378 81.5184C100.07 81.0404 99.781 80.5713 99.51 80.1112H100.369C100.559 80.4895 100.773 80.873 101.01 81.2615C101.248 81.6501 101.492 82.0233 101.744 82.3811C101.99 82.0233 102.23 81.6501 102.465 81.2615C102.702 80.873 102.919 80.4895 103.114 80.1112H103.932C103.658 80.5713 103.369 81.0404 103.064 81.5184C102.757 81.9939 102.431 82.4757 102.087 82.964V84.8965ZM107.045 82.5C107.045 82.091 107.113 81.7293 107.247 81.4149C107.378 81.103 107.558 80.8423 107.787 80.6327C108.016 80.4231 108.283 80.2658 108.588 80.161C108.892 80.0537 109.215 80 109.556 80C109.894 80 110.213 80.0537 110.511 80.161C110.81 80.2658 111.073 80.4231 111.299 80.6327C111.526 80.8423 111.706 81.103 111.84 81.4149C111.974 81.7293 112.041 82.091 112.041 82.5C112.041 82.909 111.974 83.2707 111.84 83.5851C111.706 83.897 111.526 84.1577 111.299 84.3673C111.073 84.5769 110.81 84.7342 110.511 84.839C110.213 84.9463 109.894 85 109.556 85C109.215 85 108.892 84.9463 108.588 84.839C108.283 84.7342 108.016 84.5769 107.787 84.3673C107.558 84.1577 107.378 83.897 107.247 83.5851C107.113 83.2707 107.045 82.909 107.045 82.5ZM107.817 82.5C107.817 82.7889 107.856 83.0521 107.934 83.2899C108.015 83.5276 108.13 83.7296 108.278 83.8957C108.426 84.0593 108.607 84.1871 108.822 84.2791C109.035 84.3686 109.275 84.4133 109.543 84.4133C109.809 84.4133 110.048 84.3686 110.26 84.2791C110.47 84.1871 110.65 84.0593 110.801 83.8957C110.949 83.7296 111.062 83.5276 111.14 83.2899C111.221 83.0521 111.262 82.7889 111.262 82.5C111.262 82.2111 111.221 81.9479 111.14 81.7101C111.062 81.4724 110.949 81.2704 110.801 81.1043C110.65 80.9407 110.47 80.8142 110.26 80.7247C110.048 80.6327 109.809 80.5867 109.543 80.5867C109.275 80.5867 109.035 80.6327 108.822 80.7247C108.607 80.8142 108.426 80.9407 108.278 81.1043C108.13 81.2704 108.015 81.4724 107.934 81.7101C107.856 81.9479 107.817 82.2111 107.817 82.5ZM118.013 85C117.673 85 117.376 84.9514 117.125 84.8543C116.873 84.7572 116.667 84.6242 116.505 84.4555C116.345 84.2894 116.227 84.0913 116.148 83.8612C116.07 83.6311 116.031 83.3819 116.031 83.1135V80.1112H116.76V83.0368C116.76 83.5174 116.876 83.865 117.108 84.0798C117.34 84.297 117.642 84.4057 118.013 84.4057C118.201 84.4057 118.371 84.3788 118.525 84.3252C118.678 84.2715 118.81 84.1897 118.919 84.0798C119.03 83.9698 119.116 83.8292 119.174 83.658C119.236 83.4842 119.267 83.2771 119.267 83.0368V80.1112H120V83.1135C120 83.3819 119.961 83.6311 119.883 83.8612C119.804 84.0913 119.683 84.2894 119.518 84.4555C119.356 84.6242 119.151 84.7572 118.902 84.8543C118.653 84.9514 118.357 85 118.013 85Z" fill="white" fill-opacity="0.5" style="fill:white;fill-opacity:0.5;"/>
</g>
<g clip-path="url(#clip2_273_30)">
<path d="M5.66784 70.7911H2.09889L2.56115 68.3446H5.95935C6.20922 68.3446 6.43687 68.2892 6.64232 68.1784C6.84499 68.0675 7.01018 67.9155 7.13789 67.7223C7.26283 67.5319 7.32529 67.3032 7.32529 67.0361C7.32529 66.7775 7.242 66.5729 7.07543 66.4223C6.91162 66.2717 6.66453 66.1964 6.33415 66.1964H3.00258L3.43152 63.9416H6.18007C6.56597 63.9416 6.90468 63.845 7.1962 63.6518C7.48493 63.4586 7.70704 63.2085 7.86251 62.9016C8.01521 62.5919 8.09156 62.2623 8.09156 61.9128C8.09156 61.4695 7.96107 61.1669 7.7001 61.0049C7.43912 60.843 7.11985 60.762 6.74227 60.762H4.02704L4.48929 58.2089H7.13789C8.04852 58.2089 8.79396 58.3481 9.37421 58.6266C9.95446 58.9079 10.3834 59.2844 10.661 59.7561C10.9414 60.2278 11.0816 60.7605 11.0816 61.3544C11.0816 61.9597 10.965 62.5251 10.7318 63.0508C10.4986 63.5737 10.1627 64.034 9.72403 64.4318C9.28537 64.8268 8.74676 65.1464 8.10821 65.3908L8.00827 64.6748C8.75787 64.8026 9.32701 65.074 9.7157 65.4889C10.1016 65.9009 10.2946 66.4393 10.2946 67.1043C10.2946 67.8487 10.0988 68.498 9.70737 69.0521C9.31313 69.6062 8.7662 70.0339 8.06657 70.3351C7.36694 70.6391 6.56736 70.7911 5.66784 70.7911ZM3.01924 70.7911H0L2.3904 58.2089H5.40964L3.01924 70.7911ZM17.2784 70.7911H14.255L16.6454 58.2089H19.6688L17.2784 70.7911ZM22.5214 70.7911H16.3539L16.8702 68.1016H23.017L22.5214 70.7911ZM22.4839 65.7574H17.3783L17.8406 63.2085H22.9462L22.4839 65.7574ZM24.2788 60.8984H18.232L18.7484 58.2089H24.7577L24.2788 60.8984ZM35.0023 70.7911H27.2856L29.6718 58.2089H32.6952L30.817 68.1016H35.4979L35.0023 70.7911ZM47.1251 70.7911H39.4083L41.7987 58.2089H44.818L42.9398 68.1016H47.6207L47.1251 70.7911ZM54.2422 70.7911H51.1521L54.0381 62.5095C54.3574 61.6002 54.7419 60.8543 55.1917 60.2718C55.6414 59.6893 56.1453 59.2375 56.7034 58.9164C57.2614 58.5953 57.8819 58.3737 58.5649 58.2515C59.2478 58.1293 59.9822 58.0682 60.7679 58.0682C61.3481 58.0682 61.8909 58.1066 62.3962 58.1833C62.9042 58.2572 63.3859 58.3595 63.8413 58.4902L63.9412 58.699C63.8052 59.0258 63.683 59.425 63.5747 59.8967C63.4664 60.3684 63.379 60.779 63.3124 61.1285L61.4675 70.7911H58.4274L60.1682 61.7039C60.2376 61.3772 60.3181 61.0745 60.4097 60.7961C60.4986 60.5148 60.5832 60.2874 60.6638 60.1141L60.7679 60.8302C60.6429 60.7705 60.4861 60.7264 60.2973 60.698C60.1085 60.6696 59.9461 60.6554 59.81 60.6554C59.2853 60.6554 58.8467 60.7307 58.4941 60.8813C58.1415 61.0348 57.8569 61.2564 57.6404 61.5462C57.4238 61.8389 57.2364 62.2055 57.0782 62.6459L54.2422 70.7911ZM59.7767 67.5774H54.4504L55.1667 65.0925H60.239L59.7767 67.5774ZM73.3321 70.6164L73.2321 70.4075C73.3099 70.1973 73.3918 69.9373 73.4778 69.6275C73.5639 69.3207 73.6402 69.0095 73.7069 68.6941C73.7763 68.3787 73.8332 68.1045 73.8776 67.8715L75.6725 58.2089H78.7126L77.0051 67.2961C76.9468 67.6342 76.8635 67.961 76.7553 68.2764C76.647 68.589 76.5484 68.8333 76.4596 69.0095L76.0973 68.0633C76.361 68.2054 76.5748 68.2906 76.7386 68.319C76.9052 68.3474 77.0676 68.3616 77.2258 68.3616C77.7506 68.3616 78.1684 68.2863 78.4793 68.1357C78.7931 67.9823 79.0471 67.755 79.2414 67.4538C79.4358 67.1497 79.6065 66.7832 79.7537 66.3541L82.5355 58.2089H85.6256L82.7771 66.4905C82.4578 67.3998 82.0872 68.1485 81.6652 68.7367C81.2432 69.3249 80.7601 69.7796 80.2159 70.1007C79.669 70.4217 79.0568 70.6434 78.3794 70.7656C77.702 70.8878 76.9482 70.9489 76.1181 70.9489C75.6378 70.9489 75.1617 70.919 74.6897 70.8593C74.2177 70.8025 73.7652 70.7215 73.3321 70.6164ZM87.6412 70.7911L90.0316 58.2089H93.055L90.6646 70.7911H87.6412ZM95.7161 70.1987L96.2283 67.5774H96.399C96.8099 67.8331 97.3249 68.0477 97.9441 68.221C98.5659 68.3972 99.2808 68.4852 100.089 68.4852C100.544 68.4852 100.942 68.4469 101.284 68.3702C101.625 68.2934 101.896 68.1684 102.096 67.9951C102.293 67.8189 102.392 67.5916 102.392 67.3131C102.392 66.975 102.285 66.7448 102.071 66.6226C101.854 66.5004 101.513 66.3868 101.047 66.2816L100.155 66.0898C99.4724 65.9392 98.87 65.7204 98.348 65.4334C97.8233 65.1493 97.4193 64.777 97.1361 64.3167C96.8502 63.8564 96.7072 63.2938 96.7072 62.6289C96.7072 61.6855 96.9349 60.8671 97.3902 60.1738C97.8455 59.4804 98.534 58.9448 99.4557 58.5669C100.377 58.189 101.534 58 102.925 58C103.355 58 103.795 58.0227 104.245 58.0682C104.695 58.1165 105.111 58.1804 105.494 58.26C105.875 58.3424 106.167 58.4362 106.373 58.5413L105.877 61.1797H105.69C105.382 61.0177 104.965 60.8657 104.441 60.7236C103.919 60.5844 103.305 60.5148 102.6 60.5148C102.031 60.5148 101.532 60.5758 101.105 60.698C100.677 60.8202 100.344 61.0163 100.105 61.2862C99.8667 61.5533 99.7473 61.8901 99.7473 62.2964C99.7473 62.6942 99.8694 62.9883 100.114 63.1787C100.358 63.3719 100.759 63.5268 101.317 63.6433L102.204 63.8351C102.773 63.9516 103.304 64.1292 103.795 64.3679C104.284 64.6066 104.679 64.939 104.982 65.3652C105.282 65.7915 105.432 66.3413 105.432 67.0148C105.432 67.7393 105.29 68.3574 105.007 68.8689C104.721 69.3803 104.32 69.7909 103.803 70.1007C103.284 70.4104 102.686 70.6377 102.009 70.7826C101.331 70.9275 100.588 71 99.7806 71C99.0171 71 98.28 70.9247 97.5693 70.7741C96.8585 70.6235 96.2408 70.4317 95.7161 70.1987ZM110.129 60.8984L110.625 58.2089H120.853L120.357 60.8984H116.772L114.927 70.7911H111.903L113.732 60.8984H110.129ZM124.301 70.7911H121.211L124.097 62.5095C124.413 61.6002 124.797 60.8543 125.246 60.2718C125.696 59.6893 126.2 59.2375 126.758 58.9164C127.316 58.5953 127.937 58.3737 128.62 58.2515C129.302 58.1293 130.037 58.0682 130.823 58.0682C131.403 58.0682 131.946 58.1066 132.451 58.1833C132.959 58.2572 133.441 58.3595 133.896 58.4902L134 58.699C133.861 59.0258 133.738 59.425 133.629 59.8967C133.521 60.3684 133.434 60.779 133.367 61.1285L131.522 70.7911H128.482L130.223 61.7039C130.292 61.3772 130.373 61.0745 130.464 60.7961C130.556 60.5148 130.641 60.2874 130.718 60.1141L130.823 60.8302C130.698 60.7705 130.541 60.7264 130.352 60.698C130.163 60.6696 130.001 60.6554 129.865 60.6554C129.343 60.6554 128.905 60.7307 128.553 60.8813C128.198 61.0348 127.913 61.2564 127.699 61.5462C127.483 61.8389 127.294 62.2055 127.133 62.6459L124.301 70.7911ZM129.831 67.5774H124.505L125.221 65.0925H130.294L129.831 67.5774Z" fill="white" style="fill:white;fill-opacity:1;"/>
</g>
<defs>
<linearGradient id="paint0_linear_273_30" x1="30.2385" y1="-1.67533" x2="19.7467" y2="40.5841" gradientUnits="userSpaceOnUse">
<stop stop-color="#EBD67D" style="stop-color:#EBD67D;stop-color:color(display-p3 0.9216 0.8392 0.4902);stop-opacity:1;"/>
<stop offset="0.512262" stop-color="#FEF79F" style="stop-color:#FEF79F;stop-color:color(display-p3 0.9961 0.9686 0.6235);stop-opacity:1;"/>
<stop offset="1" stop-color="#B08831" style="stop-color:#B08831;stop-color:color(display-p3 0.6902 0.5333 0.1922);stop-opacity:1;"/>
</linearGradient>
<clipPath id="clip0_273_30">
<rect width="122" height="43" fill="white" style="fill:white;fill-opacity:1;" transform="translate(6)"/>
</clipPath>
<clipPath id="clip1_273_30">
<rect width="106" height="5" fill="white" style="fill:white;fill-opacity:1;" transform="translate(14 80)"/>
</clipPath>
<clipPath id="clip2_273_30">
<rect width="134" height="13" fill="white" style="fill:white;fill-opacity:1;" transform="translate(0 58)"/>
</clipPath>
</defs>
</svg>
