<svg width="400" height="400" viewBox="0 0 400 400" fill="none" xmlns="http://www.w3.org/2000/svg">
<g clip-path="url(#clip0_2002_2)">
<path d="M399.869 192.641C399.804 190.747 399.695 188.853 399.586 186.958V186.893C398.236 166.079 393.708 146.157 386.479 127.564V127.542C384.629 122.774 382.604 118.115 380.405 113.542C374.461 114.457 368.931 116.656 364.119 119.835C361.833 121.337 359.7 123.079 357.784 124.995C353.037 122.186 347.986 119.835 342.717 117.984C333.703 114.783 324.015 113.063 313.891 113.063C311.322 113.063 308.752 113.172 306.249 113.412C305.966 113.433 305.661 113.455 305.378 113.477C300.762 107.011 295.58 101.002 289.876 95.4931C276.181 100.893 266.101 113.499 264.315 128.631C249.314 139.103 237.797 154.235 231.809 171.892C231.417 174.091 230.786 176.181 229.959 178.141C225.474 188.766 214.958 196.212 202.7 196.212C201.872 196.212 201.045 196.19 200.24 196.103C201.241 210.951 205.595 224.864 212.541 237.143C200.109 233.094 186.871 230.917 173.089 230.917C140.17 230.917 110.146 243.436 87.568 263.945C73.5032 242.935 65.3168 217.657 65.3168 190.507C65.3168 117.396 124.581 58.1319 197.692 58.1319C208.796 58.1319 219.573 59.5036 229.85 62.0945C231.374 62.4646 232.898 62.8783 234.4 63.292C236.142 63.6186 237.927 63.7927 239.778 63.7927C256.129 63.7927 269.388 50.5552 269.388 34.2042C269.388 21.032 260.788 9.86283 248.901 6.00914C248.879 6.00914 248.879 6.00914 248.879 6.00914C247.529 5.68256 246.179 5.35598 244.829 5.02939C244.807 5.00762 244.764 5.00762 244.72 5.00762C230.351 1.74178 215.371 0 200 0C89.5493 0 0 89.5493 0 200C0 250.033 18.3976 295.82 48.7916 330.895C85.4561 373.22 139.604 400 200 400C236.164 400 270.107 390.398 299.369 373.59C355.389 341.454 394.339 282.974 399.39 215.066C399.521 214.065 399.608 213.063 399.608 212.105C399.848 208.099 399.978 204.071 399.978 200.022C400 197.54 399.956 195.079 399.869 192.641Z" fill="url(#paint0_linear_2002_2)" style=""/>
<path d="M399.63 212.082C395.493 281.274 356.194 340.973 299.368 373.588C270.085 390.375 236.164 399.998 200 399.998C139.604 399.998 85.456 373.218 48.7915 330.893C54.5176 304.614 68.343 281.404 87.5461 263.965C110.146 243.455 140.148 230.936 173.068 230.936C186.849 230.936 200.087 233.114 212.519 237.185C213.259 237.185 217.701 245.393 218.441 246.395C220.684 249.465 223.078 252.404 225.669 255.191C230.829 260.764 236.621 265.728 242.935 269.974C272.284 289.656 313.15 291.42 345.961 280.12C357.283 276.223 367.864 268.493 376.159 259.915C388.744 246.895 397.061 230.022 399.63 212.082Z" fill="url(#paint1_linear_2002_2)" style=""/>
<path d="M269.41 34.2042C269.41 50.5552 256.151 63.7927 239.8 63.7927C237.949 63.7927 236.164 63.6185 234.422 63.292C232.92 62.8565 231.396 62.4428 229.872 62.0945C219.573 59.5036 208.796 58.1319 197.714 58.1319C124.581 58.1319 65.3168 117.396 65.3168 190.507C65.3168 217.679 73.5032 242.935 87.5463 263.967C68.3431 281.406 54.5177 304.637 48.7916 330.895C18.3976 295.82 0 250.033 0 200C0 89.5493 89.5493 0 200 0C215.393 0 230.351 1.74178 244.742 5.02939C244.786 5.02939 244.807 5.02939 244.851 5.05116C246.201 5.37775 247.551 5.70433 248.901 6.03092C248.922 6.03092 248.922 6.03092 248.922 6.03092C260.81 9.88461 269.41 21.032 269.41 34.2042Z" fill="url(#paint2_linear_2002_2)" style=""/>
<path d="M399.565 186.869C397.649 174.067 392.946 162.158 386.066 151.816C386.066 151.794 386.044 151.794 386.044 151.772C384.433 149.334 382.691 147.004 380.862 144.762C374.396 136.88 366.58 130.174 357.762 124.971C359.7 123.055 361.812 121.313 364.098 119.811C368.909 116.61 374.44 114.411 380.383 113.519C382.582 118.091 384.607 122.75 386.458 127.518V127.54C393.686 146.133 398.215 166.077 399.565 186.869Z" fill="url(#paint3_linear_2002_2)" style=""/>
<path d="M400 200.002C400 204.052 399.891 208.08 399.63 212.086C399.63 217.616 397.213 224.061 395.363 229.199C393.36 234.729 390.791 240.063 387.699 245.071C381.581 254.999 373.46 263.664 363.945 270.414C338.45 288.485 302.94 290.031 273.329 283.347C248.335 277.708 226.541 260.79 213.499 238.844C213.173 238.278 212.846 237.712 212.519 237.146C205.574 224.888 201.22 210.954 200.218 196.105C201.024 196.192 201.851 196.214 202.678 196.214C214.936 196.214 225.452 188.768 229.937 178.143C230.765 176.184 231.396 174.093 231.788 171.894C237.775 154.215 249.293 139.105 264.294 128.633C276.138 120.359 290.181 114.938 305.356 113.458C305.639 113.436 305.944 113.392 306.227 113.392C308.753 113.153 311.3 113.044 313.869 113.044C323.972 113.044 333.66 114.764 342.696 117.964C347.965 119.815 353.016 122.188 357.762 124.975C366.602 130.157 374.418 136.885 380.862 144.766C382.713 147.009 384.433 149.338 386.066 151.82C392.946 162.162 397.649 174.05 399.565 186.874V186.939C399.674 188.833 399.783 190.727 399.848 192.622C399.957 195.082 400 197.542 400 200.002Z" fill="url(#paint4_linear_2002_2)" style=""/>
<path d="M305.355 113.477C290.18 114.957 276.159 120.357 264.293 128.652C266.078 113.52 276.159 100.914 289.853 95.5146C295.558 101.001 300.739 107.032 305.355 113.477Z" fill="url(#paint5_linear_2002_2)" style=""/>
<path d="M376.16 259.914C367.865 268.493 357.283 276.222 345.962 280.119C313.151 291.397 272.285 289.634 242.936 269.973C236.622 265.749 230.83 260.764 225.67 255.19C223.101 252.403 220.684 249.464 218.442 246.394C217.702 245.371 213.26 237.184 212.52 237.184C201.525 233.592 189.877 231.48 177.793 231.044C174.222 269.755 211.388 304.09 248.553 319.244C273.743 329.324 275.42 366.25 261.986 389.742C261.899 389.917 261.79 390.091 261.703 390.265C274.897 385.976 287.525 380.402 299.348 373.609C356.173 341.016 395.472 281.295 399.609 212.103C397.061 230.021 388.744 246.895 376.16 259.914Z" fill="url(#paint6_linear_2002_2)" style=""/>
<path d="M229.872 62.0945C231.396 62.4646 232.92 62.8783 234.423 63.292C236.164 63.6186 237.95 63.7927 239.8 63.7927C256.151 63.7927 269.411 50.5552 269.411 34.2042C269.411 21.032 260.811 9.86283 248.923 6.00914C248.901 6.00914 248.901 6.00914 248.901 6.00914C247.551 5.68256 246.201 5.35598 244.852 5.02939C244.83 5.00762 244.786 5.00762 244.743 5.00762C230.351 1.74178 215.372 0 200.001 0C105.966 0 27.0854 64.9031 5.72681 152.362C7.72985 149.75 9.77645 147.159 11.8884 144.633C54.2572 94.5569 118.224 57.2611 182.757 59.0028C187.656 58.4585 192.642 58.1319 197.693 58.1319C208.797 58.1319 219.574 59.5036 229.872 62.0945Z" fill="url(#paint7_linear_2002_2)" style=""/>
<path d="M380.885 144.787C374.418 136.906 366.602 130.2 357.784 124.996C353.038 122.188 347.987 119.836 342.718 117.985C333.704 114.785 324.016 113.065 313.891 113.065C311.322 113.065 308.753 113.174 306.249 113.413C305.966 113.435 305.661 113.457 305.378 113.479C290.203 114.959 276.182 120.359 264.316 128.654C249.315 139.126 237.797 154.258 231.81 171.915C231.418 174.114 230.787 176.205 229.959 178.164C225.496 188.745 215.024 196.191 202.809 196.235C218.79 199.675 236.665 195.342 243.545 181.56C265.361 132.878 319.095 126.172 364.403 141.282C372.807 144.373 380.623 148.771 387.547 154.171C387.068 153.387 386.589 152.603 386.088 151.841C384.455 149.359 382.714 147.03 380.885 144.787Z" fill="url(#paint8_linear_2002_2)" style=""/>
<path d="M12.8889 270.757C21.293 292.965 33.529 313.279 48.7914 330.892C54.1691 306.224 66.6882 284.256 84.0842 267.208C60.875 272.238 36.8166 273.174 12.8889 270.757Z" fill="url(#paint9_linear_2002_2)" style=""/>
</g>
<defs>
<linearGradient id="paint0_linear_2002_2" x1="0" y1="199.995" x2="399.99" y2="199.995" gradientUnits="userSpaceOnUse">
<stop stop-color="#D26EE0" style="stop-color:#D26EE0;stop-color:color(display-p3 0.8235 0.4314 0.8784);stop-opacity:1;"/>
<stop offset="0.5" stop-color="#924ACA" style="stop-color:#924ACA;stop-color:color(display-p3 0.5725 0.2902 0.7922);stop-opacity:1;"/>
<stop offset="1" stop-color="#3A3E9C" style="stop-color:#3A3E9C;stop-color:color(display-p3 0.2275 0.2431 0.6118);stop-opacity:1;"/>
</linearGradient>
<linearGradient id="paint1_linear_2002_2" x1="30.3488" y1="244.823" x2="286.054" y2="449.739" gradientUnits="userSpaceOnUse">
<stop stop-color="#FFD789" style="stop-color:#FFD789;stop-color:color(display-p3 1.0000 0.8431 0.5373);stop-opacity:1;"/>
<stop offset="1" stop-color="#AC802B" style="stop-color:#AC802B;stop-color:color(display-p3 0.6750 0.5034 0.1688);stop-opacity:1;"/>
</linearGradient>
<linearGradient id="paint2_linear_2002_2" x1="-14.1622" y1="57.6532" x2="273.199" y2="158.079" gradientUnits="userSpaceOnUse">
<stop stop-color="#FFD789" style="stop-color:#FFD789;stop-color:color(display-p3 1.0000 0.8431 0.5373);stop-opacity:1;"/>
<stop offset="1" stop-color="#AC802B" style="stop-color:#AC802B;stop-color:color(display-p3 0.6750 0.5034 0.1688);stop-opacity:1;"/>
</linearGradient>
<linearGradient id="paint3_linear_2002_2" x1="355.564" y1="126.299" x2="402.773" y2="137.847" gradientUnits="userSpaceOnUse">
<stop stop-color="#FFD789" style="stop-color:#FFD789;stop-color:color(display-p3 1.0000 0.8431 0.5373);stop-opacity:1;"/>
<stop offset="1" stop-color="#AC802B" style="stop-color:#AC802B;stop-color:color(display-p3 0.6750 0.5034 0.1688);stop-opacity:1;"/>
</linearGradient>
<linearGradient id="paint4_linear_2002_2" x1="189.716" y1="143.35" x2="382.082" y2="238.187" gradientUnits="userSpaceOnUse">
<stop stop-color="#FFD789" style="stop-color:#FFD789;stop-color:color(display-p3 1.0000 0.8431 0.5373);stop-opacity:1;"/>
<stop offset="1" stop-color="#AC802B" style="stop-color:#AC802B;stop-color:color(display-p3 0.6750 0.5034 0.1688);stop-opacity:1;"/>
</linearGradient>
<linearGradient id="paint5_linear_2002_2" x1="262.134" y1="101.288" x2="300.444" y2="121.665" gradientUnits="userSpaceOnUse">
<stop stop-color="#FFD789" style="stop-color:#FFD789;stop-color:color(display-p3 1.0000 0.8431 0.5373);stop-opacity:1;"/>
<stop offset="1" stop-color="#AC802B" style="stop-color:#AC802B;stop-color:color(display-p3 0.6750 0.5034 0.1688);stop-opacity:1;"/>
</linearGradient>
<linearGradient id="paint6_linear_2002_2" x1="269.725" y1="314.566" x2="299.642" y2="176.948" gradientUnits="userSpaceOnUse">
<stop stop-opacity="0" style="stop-color:none;stop-opacity:0;"/>
<stop offset="1" style="stop-color:black;stop-opacity:1;"/>
</linearGradient>
<linearGradient id="paint7_linear_2002_2" x1="65.5472" y1="118.835" x2="307.276" y2="-45.1101" gradientUnits="userSpaceOnUse">
<stop stop-color="#E8FFFF" stop-opacity="0" style="stop-color:none;stop-opacity:0;"/>
<stop offset="1" stop-color="white" style="stop-color:white;stop-opacity:1;"/>
</linearGradient>
<linearGradient id="paint8_linear_2002_2" x1="194.613" y1="223.904" x2="467.456" y2="52.3795" gradientUnits="userSpaceOnUse">
<stop stop-color="#E8FFFF" stop-opacity="0" style="stop-color:none;stop-opacity:0;"/>
<stop offset="1" stop-color="white" style="stop-color:white;stop-opacity:1;"/>
</linearGradient>
<linearGradient id="paint9_linear_2002_2" x1="48.4016" y1="253.456" x2="49.1994" y2="397.058" gradientUnits="userSpaceOnUse">
<stop stop-opacity="0" style="stop-color:none;stop-opacity:0;"/>
<stop offset="1" style="stop-color:black;stop-opacity:1;"/>
</linearGradient>
<clipPath id="clip0_2002_2">
<rect width="400" height="400" fill="white" style="fill:white;fill-opacity:1;"/>
</clipPath>
</defs>
</svg>
