<svg width="63" height="63" viewBox="0 0 63 63" fill="none" xmlns="http://www.w3.org/2000/svg">
<g opacity="0.5" clip-path="url(#clip0_77_591)">
<path d="M38.1125 54.1217C37.2177 53.2269 36.6083 52.0868 36.3614 50.8456C36.1145 49.6044 36.2412 48.3179 36.7255 47.1487C37.2098 45.9796 38.0299 44.9803 39.0821 44.2772C40.1343 43.5742 41.3714 43.1989 42.6369 43.1989C43.9024 43.1989 45.1394 43.5742 46.1917 44.2772C47.2439 44.9803 48.064 45.9796 48.5483 47.1487C49.0326 48.3179 49.1593 49.6044 48.9124 50.8456C48.6655 52.0868 48.0561 53.2269 47.1613 54.1217C45.9613 55.3216 44.3339 55.9958 42.6369 55.9958C40.9399 55.9958 39.3124 55.3216 38.1125 54.1217ZM45.0731 47.1611C44.5913 46.6793 43.9774 46.3512 43.309 46.2182C42.6407 46.0853 41.948 46.1535 41.3184 46.4143C40.6889 46.675 40.1508 47.1166 39.7722 47.6832C39.3936 48.2498 39.1916 48.9159 39.1916 49.5973C39.1916 50.2787 39.3936 50.9449 39.7722 51.5114C40.1508 52.078 40.6889 52.5196 41.3184 52.7804C41.948 53.0411 42.6407 53.1094 43.309 52.9764C43.9774 52.8435 44.5913 52.5154 45.0731 52.0335C45.7192 51.3874 46.0822 50.5111 46.0822 49.5973C46.0822 48.6836 45.7192 47.8072 45.0731 47.1611ZM17.9268 24.8873C17.032 25.7821 15.8919 26.3915 14.6507 26.6384C13.4095 26.8853 12.123 26.7585 10.9539 26.2743C9.7847 25.79 8.7854 24.9699 8.08233 23.9177C7.37926 22.8654 7.004 21.6284 7.004 20.3629C7.004 19.0974 7.37926 17.8603 8.08233 16.8081C8.7854 15.7559 9.7847 14.9358 10.9539 14.4515C12.123 13.9672 13.4095 13.8405 14.6507 14.0874C15.8919 14.3343 17.032 14.9437 17.9268 15.8385C19.1268 17.0384 19.8009 18.6659 19.8009 20.3629C19.8009 22.0599 19.1268 23.6873 17.9268 24.8873ZM15.8386 17.9267C15.3568 17.4448 14.7429 17.1167 14.0746 16.9838C13.4063 16.8508 12.7135 16.9191 12.084 17.1798C11.4544 17.4406 10.9163 17.8822 10.5378 18.4488C10.1592 19.0153 9.95712 19.6815 9.95712 20.3629C9.95712 21.0443 10.1592 21.7104 10.5378 22.277C10.9163 22.8436 11.4544 23.2852 12.084 23.5459C12.7135 23.8067 13.4063 23.8749 14.0746 23.742C14.7429 23.6091 15.3568 23.2809 15.8386 22.7991C16.4848 22.153 16.8477 21.2766 16.8477 20.3629C16.8477 19.4491 16.4848 18.5728 15.8386 17.9267ZM17.9268 32.5439C18.8217 33.4387 19.431 34.5788 19.6779 35.82C19.9248 37.0612 19.7981 38.3477 19.3138 39.5169C18.8295 40.686 18.0094 41.6853 16.9572 42.3884C15.905 43.0915 14.6679 43.4667 13.4024 43.4667C12.1369 43.4667 10.8999 43.0915 9.84766 42.3884C8.79544 41.6853 7.97534 40.686 7.49105 39.5169C7.00677 38.3477 6.88006 37.0612 7.12694 35.82C7.37383 34.5788 7.98322 33.4387 8.87806 32.5439C10.078 31.344 11.7055 30.6698 13.4024 30.6698C15.0994 30.6698 16.7269 31.344 17.9268 32.5439ZM10.9662 39.5045C11.4481 39.9863 12.062 40.3145 12.7303 40.4474C13.3986 40.5803 14.0914 40.5121 14.7209 40.2513C15.3504 39.9906 15.8885 39.549 16.2671 38.9824C16.6457 38.4158 16.8478 37.7497 16.8478 37.0683C16.8478 36.3869 16.6457 35.7207 16.2671 35.1542C15.8885 34.5876 15.3505 34.146 14.7209 33.8852C14.0914 33.6245 13.3986 33.5562 12.7303 33.6892C12.062 33.8221 11.4481 34.1502 10.9662 34.6321C10.3201 35.2782 9.95712 36.1545 9.95712 37.0683C9.95712 37.982 10.3201 38.8584 10.9662 39.5045ZM30.4559 45.0729C31.3507 45.9678 31.9601 47.1079 32.207 48.3491C32.4539 49.5902 32.3272 50.8767 31.8429 52.0459C31.3586 53.2151 30.5385 54.2144 29.4863 54.9174C28.434 55.6205 27.197 55.9958 25.9315 55.9958C24.666 55.9958 23.4289 55.6205 22.3767 54.9174C21.3245 54.2144 20.5044 53.2151 20.0201 52.0459C19.5358 50.8767 19.4091 49.5902 19.656 48.3491C19.9029 47.1079 20.5123 45.9678 21.4071 45.0729C22.607 43.873 24.2345 43.1989 25.9315 43.1989C27.6285 43.1989 29.2559 43.873 30.4559 45.0729ZM23.4953 52.0335C23.9771 52.5154 24.591 52.8435 25.2593 52.9764C25.9277 53.1094 26.6204 53.0411 27.25 52.7804C27.8795 52.5196 28.4176 52.078 28.7962 51.5114C29.1747 50.9449 29.3768 50.2787 29.3768 49.5973C29.3768 48.9159 29.1747 48.2498 28.7962 47.6832C28.4176 47.1166 27.8795 46.675 27.2499 46.4143C26.6204 46.1535 25.9277 46.0853 25.2593 46.2182C24.591 46.3512 23.9771 46.6793 23.4953 47.1611C22.8492 47.8072 22.4862 48.6836 22.4862 49.5973C22.4862 50.5111 22.8492 51.3874 23.4953 52.0335ZM45.5534 37.6843C44.3943 37.3498 43.1807 37.247 41.982 37.3817C40.7832 37.5163 39.6226 37.8858 38.5667 38.4691C36.6054 39.5468 34.3473 39.9589 32.1317 39.6433C29.9162 39.3278 27.8629 38.3017 26.2805 36.7193C24.6981 35.1368 23.672 33.0836 23.3564 30.868C23.0409 28.6525 23.4529 26.3944 24.5307 24.4331C25.7076 22.3053 25.9911 19.7972 25.319 17.4603C24.7252 15.4659 24.8136 13.3303 25.5702 11.3918C26.3269 9.45327 27.7084 7.82248 29.4963 6.7576C31.2842 5.69271 33.3761 5.25458 35.441 5.51255C37.5059 5.77052 39.4258 6.70986 40.8967 8.18186C41.7804 9.06337 42.4766 10.1146 42.9431 11.2724C44.5945 15.2397 47.7479 18.3931 51.7152 20.0444C52.8781 20.5137 53.9336 21.214 54.8179 22.103C56.2887 23.5731 57.2275 25.4915 57.4859 27.5549C57.7444 29.6183 57.3077 31.709 56.2449 33.4964C55.1821 35.2839 53.5538 36.6661 51.6175 37.4245C49.6813 38.1829 47.5474 38.2743 45.5534 37.6843ZM52.7297 24.1912C52.1199 23.5798 51.3923 23.0985 50.5911 22.7765C45.8948 20.825 42.1626 17.0928 40.2111 12.3965C39.5872 10.881 38.4055 9.66278 36.9097 8.99293C35.414 8.32309 33.7182 8.25273 32.1721 8.79636C30.626 9.33999 29.3475 10.4562 28.6001 11.9147C27.8528 13.3733 27.6936 15.063 28.1554 16.6355C29.0452 19.7253 28.6715 23.0421 27.1165 25.8565C26.346 27.2576 26.0512 28.8709 26.2764 30.4539C26.5016 32.0369 27.2346 33.504 28.3652 34.6346C29.4958 35.7652 30.9629 36.4982 32.5459 36.7234C34.1289 36.9485 35.7422 36.6537 37.1432 35.8832C38.5391 35.1125 40.0733 34.6246 41.6579 34.4475C43.2426 34.2704 44.8466 34.4077 46.3782 34.8513C47.7434 35.2594 49.2057 35.2001 50.5334 34.6829C51.8611 34.1657 52.9781 33.2201 53.7074 31.996C54.4367 30.7719 54.7366 29.3394 54.5595 27.9256C54.3824 26.5118 53.7385 25.1975 52.7297 24.1912Z" fill="url(#paint0_linear_77_591)" style=""/>
</g>
<defs>
<linearGradient id="paint0_linear_77_591" x1="15.1426" y1="47.8572" x2="47.8573" y2="15.1424" gradientUnits="userSpaceOnUse">
<stop stop-color="#B08831" style="stop-color:#B08831;stop-color:color(display-p3 0.6902 0.5333 0.1922);stop-opacity:1;"/>
<stop offset="0.561423" stop-color="#FBF199" style="stop-color:#FBF199;stop-color:color(display-p3 0.9843 0.9451 0.6000);stop-opacity:1;"/>
<stop offset="1" stop-color="#EBD67D" style="stop-color:#EBD67D;stop-color:color(display-p3 0.9216 0.8392 0.4902);stop-opacity:1;"/>
</linearGradient>
<clipPath id="clip0_77_591">
<rect width="63" height="63" fill="white" style="fill:white;fill-opacity:1;" transform="matrix(1 0 0 -1 0 63)"/>
</clipPath>
</defs>
</svg>
