<svg width="189" height="67" viewBox="0 0 189 67" fill="none" xmlns="http://www.w3.org/2000/svg">
<g clip-path="url(#clip0_277_3)">
<path d="M188.9 20.1096C188.825 19.6018 188.684 19.1058 188.48 18.6341C188.026 17.6313 187.264 16.7958 186.302 16.2466C186.097 16.1204 185.882 16.0087 185.66 15.9124L185.317 15.7501C185.105 15.6498 184.897 15.5447 184.7 15.4397C184.315 15.2369 183.943 15.0121 183.584 14.7664C182.889 14.2965 182.255 13.7431 181.697 13.119C181.108 12.4696 180.499 11.6865 179.838 10.8127C179.135 9.87318 178.382 8.97105 177.583 8.11006C177.128 7.63324 176.644 7.18359 176.135 6.76351C175.863 6.53941 175.579 6.32904 175.285 6.13321L174.831 5.83238C174.682 5.74165 174.532 5.66526 174.382 5.57931C171.985 4.21139 169.25 3.53177 166.484 3.61679C165.837 3.64438 165.192 3.71296 164.553 3.82211L158.639 0.613311C158.259 0.407089 157.829 0.309188 157.396 0.330503C156.963 0.351818 156.545 0.491514 156.187 0.734042C155.83 0.976569 155.548 1.31241 155.372 1.70418C155.196 2.09596 155.134 2.52829 155.192 2.95306L155.882 7.98591C157.079 7.60036 158.169 6.94671 159.069 6.07591C159.09 6.69355 158.971 7.30805 158.72 7.87414C158.47 8.44023 158.094 8.94348 157.62 9.34678C157.35 9.75397 157.046 10.1388 156.713 10.4976C155.911 11.3455 155.01 12.0957 154.028 12.7323L154.004 12.7848C152.874 15.2296 151.658 17.7842 149.901 19.8852C145.763 24.8321 139.202 26.5272 132.964 25.725C129.479 25.2339 126.072 24.3032 122.826 22.9555C119.475 21.58 116.22 19.9848 113.084 18.1805C109.81 16.254 106.435 14.5007 102.974 12.928C102.53 12.7323 102.086 12.5413 101.632 12.355L100.927 12.0733L100.217 11.8393L98.7931 11.3618C98.3103 11.209 97.8276 11.104 97.3448 10.9751C95.4424 10.4791 93.5062 10.12 91.5514 9.90069C87.6624 9.51885 83.7396 9.64084 79.8825 10.2636C76.0987 10.8913 72.3816 11.8631 68.7785 13.1668C61.5995 15.7119 54.9033 19.1737 48.3037 22.6595C45.0062 24.4071 41.7282 26.1739 38.4211 27.8594C36.7652 28.6903 35.1044 29.5259 33.4243 30.2995C31.7442 31.073 30.0448 31.8704 28.3502 32.6153C24.9708 34.086 21.4995 35.4326 17.8883 35.9196C16.098 36.1808 14.2749 36.1226 12.5053 35.7477C11.6292 35.5473 10.779 35.2493 9.97069 34.8596C9.16759 34.4527 8.41024 33.9629 7.71126 33.3984C7.02116 32.7997 6.3667 32.162 5.75116 31.4884C5.13144 30.8206 4.57247 30.0999 4.08073 29.3349C3.10023 27.7863 2.3598 26.1011 1.88407 24.3355C0.93652 20.7543 0.674529 17.0294 1.11161 13.353C0.546078 17.0313 0.678693 20.7817 1.50267 24.4119C1.92974 26.2391 2.62939 27.9932 3.57864 29.6166C4.05915 30.4288 4.61342 31.1959 5.23458 31.9086C5.84927 32.6282 6.50534 33.3121 7.19951 33.9571C7.92722 34.5871 8.72016 35.1393 9.56514 35.6045C10.4271 36.0633 11.339 36.4238 12.2832 36.6789C14.1609 37.1475 16.1086 37.2785 18.0332 37.0656C21.8665 36.6836 25.4873 35.4087 28.9779 34.0335C30.7255 33.3364 32.4394 32.601 34.1629 31.88C35.8865 31.159 37.6004 30.3711 39.2998 29.588C42.6792 28.0075 46.0587 26.3505 49.3947 24.7223C56.0909 21.4753 62.8113 18.3047 69.802 16.0939C73.2612 14.9785 76.8165 14.1793 80.4232 13.7064C83.9708 13.2566 87.5626 13.2678 91.1072 13.7398C92.8597 14.0019 94.5909 14.388 96.2875 14.8953C96.7075 15.029 97.142 15.1341 97.5524 15.2869L98.7738 15.731L99.3869 15.9554L99.9711 16.2132C100.377 16.3995 100.782 16.5857 101.188 16.7814C104.458 18.4148 107.637 20.2191 110.713 22.1867C113.968 24.2115 117.355 26.0205 120.851 27.6016C124.459 29.2408 128.264 30.4171 132.173 31.1017C134.209 31.4316 136.27 31.5787 138.333 31.541C138.589 31.541 138.927 31.5028 139.188 31.4789L139.492 31.4455C138.772 32.071 138.043 32.6917 137.3 33.2934C135.184 34.9924 132.969 36.5677 130.666 38.0111C128.361 39.4793 125.977 40.8246 123.526 42.0412C121.875 42.872 120.19 43.6456 118.491 44.3762C113.719 42.8065 109.057 40.9242 104.538 38.7417C101.831 37.4524 99.1568 36.0836 96.5144 34.6352L92.5169 32.4339C91.1555 31.6985 89.7635 31.0141 88.3409 30.3806C85.4972 29.0927 82.5247 28.1036 79.4721 27.4297C76.4046 26.757 73.2541 26.5317 70.1206 26.7612C68.5628 26.8861 67.0167 27.1271 65.4956 27.4822L64.361 27.7735L63.2506 28.1077C62.5023 28.3178 61.8023 28.5852 61.054 28.8526C60.8174 28.9386 60.5712 29.0341 60.3491 29.1248V29.1009L60.2043 29.1869C57.6385 30.2248 55.1795 31.504 52.8611 33.0069C47.7528 36.3498 43.2758 40.5516 39.6329 45.4219C43.4717 40.7691 48.1038 36.8163 53.3198 33.7422C53.8026 33.4557 54.3095 33.1836 54.8116 32.9162C57.2068 36.4982 59.9299 39.8548 62.9465 42.9437C66.0173 46.1101 69.3576 49.0096 72.9304 51.6103C74.0119 52.3934 75.111 53.1446 76.2278 53.8641L75.1947 53.9357C69.5826 54.2588 63.9557 54.2428 58.3456 53.888C47.087 53.2242 35.8527 51.5864 24.5845 50.4786C35.7803 52.1451 46.8891 54.3368 58.2007 55.5735C63.8724 56.2131 69.5781 56.5113 75.2864 56.4665C76.9633 56.4474 78.6402 56.4028 80.317 56.3328C85.4134 59.1932 90.8129 61.4895 96.4178 63.1801C104.751 65.6505 113.423 66.8233 122.121 66.6563C130.727 66.4733 139.258 65.0249 147.434 62.3588C139.182 64.4702 130.66 65.3569 122.145 64.9898C113.727 64.6065 105.42 62.9295 97.5234 60.0191C94.3376 58.8208 91.2347 57.4171 88.2347 55.817C89.6299 55.6881 91.0251 55.5449 92.4156 55.3778C101.638 54.3363 110.709 52.2535 119.451 49.1703C119.616 49.2228 119.775 49.2849 119.934 49.3422C125.834 51.3285 132.062 52.742 138.526 52.8613C141.792 52.929 145.055 52.6003 148.24 51.8825C151.485 51.1477 154.604 49.9493 157.5 48.3251C158.95 47.5091 160.339 46.5915 161.656 45.5795C162.947 44.5855 164.178 43.5189 165.345 42.385C166.474 41.3011 167.58 40.198 168.661 39.0425C169.207 38.4647 169.743 37.8726 170.279 37.2519C170.762 36.7075 171.206 36.1488 171.669 35.5138H171.722C172.679 35.2902 173.66 35.1828 174.643 35.1938C175.599 35.2282 176.548 35.3578 177.477 35.5806L180.615 36.3398C180.886 36.4067 181.175 36.464 181.455 36.5213C181.829 36.5967 182.209 36.6399 182.59 36.6502C182.837 36.6545 183.084 36.6385 183.328 36.6025C183.459 36.6025 183.599 36.5547 183.734 36.5213L183.946 36.4592C184.044 36.4276 184.139 36.3893 184.231 36.3446C184.431 36.2557 184.621 36.1486 184.801 36.0247C184.941 35.9149 185.076 35.8003 185.206 35.6761C185.313 35.5712 185.413 35.4595 185.506 35.3419C185.591 35.2397 185.67 35.1328 185.742 35.0219C186.144 34.3824 186.451 33.6894 186.655 32.9639C186.843 32.3527 186.973 31.7702 187.094 31.2115L187.258 30.3997L187.331 30.0512L187.413 29.7074L187.775 28.103C188.007 27.0334 188.219 25.9685 188.422 24.9037L188.716 23.3041C188.803 22.7454 188.909 22.3491 188.982 21.4609C189 21.0089 188.972 20.5562 188.9 20.1096ZM91.8603 52.0114C89.1439 52.473 86.4081 52.8613 83.653 53.1765C80.9932 51.5087 78.4497 49.6662 76.0396 47.6614C72.8865 45.0329 69.9693 42.1396 67.3205 39.0138C64.9653 36.2688 62.8495 33.3312 60.996 30.2326L61.4788 30.0703C62.1933 29.8554 62.8982 29.5928 63.6272 29.4495L64.7135 29.1773L65.8045 28.9529C67.258 28.6844 68.7298 28.5248 70.2075 28.4754C73.1624 28.3997 76.1126 28.7503 78.9652 29.5164C81.8218 30.29 84.5875 31.3608 87.216 32.7108C88.5452 33.373 89.8455 34.0892 91.1169 34.8596L94.9791 37.2471C97.5894 38.8388 100.246 40.362 102.95 41.8168C106.17 43.5405 109.463 45.1593 112.847 46.5918C106.035 49.0122 99.018 50.8259 91.8797 52.0114H91.8603ZM182.484 32.496H182.401C182.434 32.4823 182.468 32.4727 182.503 32.4673C182.504 32.4768 182.504 32.4864 182.503 32.496H182.484ZM179.341 22.3109C179.854 22.7378 180.422 23.0959 181.03 23.3757C181.767 23.7026 182.529 23.9693 183.309 24.1731C183.196 25.195 183.073 26.2153 182.937 27.2339L182.71 28.7762L182.643 29.2155L182.59 29.6596L182.503 30.4284C182.445 30.9059 182.382 31.3834 182.295 31.8084C182.25 32.041 182.191 32.2707 182.117 32.496H182.01L181.257 32.3814L178.042 31.9468C176.849 31.7826 175.641 31.7505 174.44 31.8513C173.825 31.9062 173.215 32.0067 172.615 32.1522C171.988 32.305 171.529 32.4625 171.003 32.6297C170.036 32.9601 169.041 33.2031 168.029 33.3555C167.123 33.5206 166.191 33.4847 165.301 33.2504C163.381 32.7678 161.702 31.6145 160.575 30.0034C159.993 29.1902 159.657 28.2293 159.609 27.2339C159.6 26.1906 159.94 25.1735 160.575 24.3403C159.728 25.0838 159.173 26.0979 159.006 27.2053C158.858 28.3491 159.051 29.5109 159.561 30.5478C160.069 31.5931 160.773 32.533 161.637 33.3173C162.224 33.8501 162.872 34.3132 163.568 34.6972C162.651 35.743 161.685 36.7839 160.7 37.7962C159.716 38.8085 158.706 39.7969 157.659 40.6851C156.612 41.5698 155.504 42.3804 154.342 43.1108C149.703 46.0426 144.16 47.499 138.449 47.6566C134.302 47.7381 130.16 47.3244 126.114 46.4246C128.637 45.3073 131.109 44.0642 133.529 42.6954C136.088 41.263 138.559 39.6829 140.93 37.9633C143.324 36.2424 145.608 34.3783 147.771 32.3814C149.936 30.3622 151.975 28.2159 153.879 25.9542H153.855C155.11 24.6362 156.188 23.1627 157.06 21.5708C158.18 19.6321 159.212 17.6489 160.155 15.6211C160.391 15.115 160.638 14.6041 160.845 14.0931L161.154 13.3912C161.208 13.266 161.271 13.1447 161.342 13.0283C161.415 12.905 161.494 12.7855 161.579 12.6702C161.69 12.5413 161.801 12.4123 161.907 12.2786C162.137 12.0231 162.389 11.7882 162.66 11.5767C163.226 11.1316 163.86 10.7786 164.539 10.531C165.255 10.2815 166.002 10.1305 166.759 10.0821C167.536 10.0298 168.316 10.0877 169.077 10.254C169.846 10.4066 170.588 10.6722 171.278 11.0419L171.539 11.1708L171.766 11.3045C171.915 11.4 172.065 11.5051 172.22 11.6197C172.545 11.8658 172.855 12.1322 173.147 12.4171C173.838 13.098 174.494 13.8136 175.111 14.5611C175.802 15.368 176.526 16.2466 177.424 17.1443C178.349 18.0726 179.387 18.8842 180.514 19.5605C181.066 19.8878 181.636 20.1828 182.223 20.4439C182.508 20.5728 182.793 20.6922 183.073 20.8068L183.473 20.9643C183.498 20.974 183.524 20.982 183.551 20.9882C183.584 20.9882 183.594 20.9882 183.551 20.9882C183.536 20.9615 183.526 20.9324 183.522 20.9023C183.522 20.9023 183.522 20.9023 183.56 20.9596C183.572 21.0001 183.58 21.0416 183.584 21.0837C182.877 21.2933 182.154 21.4434 181.421 21.5326C180.871 21.5904 180.316 21.5743 179.77 21.4848C179.196 21.3911 178.651 21.169 178.177 20.8354C178.455 21.4086 178.859 21.9129 179.36 22.3109H179.341Z" fill="url(#paint0_linear_277_3)" style=""/>
<path opacity="0.82" d="M92.3771 58.5721C92.995 58.5721 93.6034 58.6055 94.1972 58.6628C92.1534 57.7874 90.1531 56.8324 88.1962 55.7979L80.2979 56.3183C82.4849 57.5503 84.7346 58.6676 87.023 59.6608C88.7166 58.9488 90.5369 58.5786 92.3771 58.5721Z" fill="black" fill-opacity="0.36" style="fill:black;fill-opacity:0.36;"/>
<path opacity="0.82" d="M105.412 49.2132C108.163 49.1935 110.875 49.8498 113.306 51.1232C115.359 50.5215 117.393 49.8578 119.408 49.132L112.852 46.5869C110.164 47.5419 107.429 48.4062 104.645 49.1797H104.606L104.698 49.2132C104.939 49.2227 105.176 49.2132 105.412 49.2132Z" fill="black" fill-opacity="0.36" style="fill:black;fill-opacity:0.36;"/>
<path opacity="0.82" d="M137.474 25.8492C135.702 28.052 133.388 29.7684 130.753 30.8343C131.236 30.9346 131.695 31.0206 132.173 31.1017C134.209 31.4317 136.27 31.5787 138.333 31.541C138.589 31.541 138.927 31.5028 139.188 31.479L139.492 31.4455L148.587 21.27C145.556 24.1111 141.587 25.5627 137.474 25.8492Z" fill="black" fill-opacity="0.36" style="fill:black;fill-opacity:0.36;"/>
<path opacity="0.82" d="M163.573 34.7114C163.312 35.0075 162.965 35.3942 162.607 35.7953L161.729 36.7503L161.106 37.4141C162.974 38.8466 165.731 39.8302 168.382 39.2763C168.464 39.1856 168.55 39.1044 168.633 39.0137C169.178 38.4359 169.714 37.8438 170.25 37.2231C170.733 36.6787 171.177 36.12 171.64 35.485H171.693H171.737C168.991 35.7901 166.211 35.5267 163.573 34.7114Z" fill="black" fill-opacity="0.36" style="fill:black;fill-opacity:0.36;"/>
</g>
<defs>
<linearGradient id="paint0_linear_277_3" x1="38.1649" y1="-2.25721" x2="21.9772" y2="62.9445" gradientUnits="userSpaceOnUse">
<stop stop-color="#EBD67D" style="stop-color:#EBD67D;stop-color:color(display-p3 0.9216 0.8392 0.4902);stop-opacity:1;"/>
<stop offset="0.512262" stop-color="#FEF79F" style="stop-color:#FEF79F;stop-color:color(display-p3 0.9961 0.9686 0.6235);stop-opacity:1;"/>
<stop offset="1" stop-color="#B08831" style="stop-color:#B08831;stop-color:color(display-p3 0.6902 0.5333 0.1922);stop-opacity:1;"/>
</linearGradient>
<clipPath id="clip0_277_3">
<rect width="188.233" height="66.3443" fill="white" style="fill:white;fill-opacity:1;" transform="translate(0.767578 0.327637)"/>
</clipPath>
</defs>
</svg>
