<?xml version="1.0" encoding="UTF-8"?>

<svg version="1.1" xmlns="http://www.w3.org/2000/svg" xmlns:xlink="http://www.w3.org/1999/xlink">
    
    <symbol viewBox="0 0 13 7" id="dropdown-arrow" xmlns="http://www.w3.org/2000/svg">
        <path d="M7.14357 6.74815L12.7332 1.46799C13.0889 1.1321 13.0889 0.587529 12.7332 0.25181C12.3778 -0.083936 11.8013 -0.083936 11.4459 0.25181L6.49991 4.92394L1.55412 0.251946C1.19854 -0.0838007 0.622118 -0.0838007 0.266684 0.251946C-0.0888946 0.587692 -0.0888946 1.13224 0.266684 1.46812L5.85639 6.74829C6.03419 6.91616 6.26698 7 6.49988 7C6.73289 7 6.96585 6.916 7.14357 6.74815Z" fill="currentColor"/>
    </symbol>

    <symbol viewBox="0 0 19 17" id="telegram" xmlns="http://www.w3.org/2000/svg">
        <path d="M19 0.602225L15.9946 16.2923C15.9946 16.2923 15.5741 17.3801 14.4189 16.8584L7.48458 11.3526L7.45242 11.3364C8.38909 10.4654 15.6524 3.70266 15.9698 3.39612C16.4613 2.92136 16.1562 2.63873 15.5856 2.99736L4.85679 10.053L0.717638 8.61077C0.717638 8.61077 0.0662573 8.37083 0.00359284 7.84911C-0.0598962 7.32653 0.739076 7.0439 0.739076 7.0439L17.6131 0.188948C17.6131 0.188948 19 -0.44207 19 0.602225Z" fill="currentColor"/>
    </symbol>

    <symbol viewBox="0 0 12 23" id="facebook" xmlns="http://www.w3.org/2000/svg">
        <path d="M7.65708 12.3648H11.3793L11.9637 8.56055H7.65632V6.48134C7.65632 4.90099 8.16957 3.49962 9.63891 3.49962H12V0.179741C11.5852 0.123382 10.7078 0 9.04996 0C5.58819 0 3.55867 1.8393 3.55867 6.0297V8.56055H0V12.3648H3.55867V22.821C4.26344 22.9276 4.97729 23 5.71007 23C6.37245 23 7.01893 22.9391 7.65708 22.8522V12.3648Z" fill="currentColor" />
    </symbol>

    <symbol viewBox="0 0 20 20" id="instagram" xmlns="http://www.w3.org/2000/svg">
        <path d="M10 1.80723C12.6506 1.80723 13.0121 1.80723 14.0964 1.80723C15.0602 1.80723 15.5422 2.04819 15.9036 2.16868C16.3855 2.40964 16.747 2.53012 17.1084 2.89157C17.4699 3.25301 17.7108 3.61446 17.8313 4.09639C17.9518 4.45783 18.0723 4.93976 18.1928 5.90362C18.1928 6.98795 18.1928 7.22892 18.1928 10C18.1928 12.7711 18.1928 13.0121 18.1928 14.0964C18.1928 15.0602 17.9518 15.5422 17.8313 15.9036C17.5904 16.3855 17.4699 16.747 17.1084 17.1084C16.747 17.4699 16.3855 17.7108 15.9036 17.8313C15.5422 17.9518 15.0602 18.0723 14.0964 18.1928C13.0121 18.1928 12.7711 18.1928 10 18.1928C7.22892 18.1928 6.98795 18.1928 5.90362 18.1928C4.93976 18.1928 4.45783 17.9518 4.09639 17.8313C3.61446 17.5904 3.25301 17.4699 2.89157 17.1084C2.53012 16.747 2.28916 16.3855 2.16868 15.9036C2.04819 15.5422 1.92771 15.0602 1.80723 14.0964C1.80723 13.0121 1.80723 12.7711 1.80723 10C1.80723 7.22892 1.80723 6.98795 1.80723 5.90362C1.80723 4.93976 2.04819 4.45783 2.16868 4.09639C2.40964 3.61446 2.53012 3.25301 2.89157 2.89157C3.25301 2.53012 3.61446 2.28916 4.09639 2.16868C4.45783 2.04819 4.93976 1.92771 5.90362 1.80723C6.98795 1.80723 7.3494 1.80723 10 1.80723ZM10 0C7.22892 0 6.98795 0 5.90362 0C4.81928 0 4.09639 0.240965 3.49398 0.481928C2.89157 0.722892 2.28916 1.08434 1.68675 1.68675C1.08434 2.28916 0.843374 2.77109 0.481928 3.49398C0.240965 4.09639 0.120482 4.81928 0 5.90362C0 6.98795 0 7.3494 0 10C0 12.7711 0 13.0121 0 14.0964C0 15.1807 0.240965 15.9036 0.481928 16.506C0.722892 17.1084 1.08434 17.7108 1.68675 18.3133C2.28916 18.9157 2.77109 19.1566 3.49398 19.5181C4.09639 19.759 4.81928 19.8795 5.90362 20C6.98795 20 7.3494 20 10 20C12.6506 20 13.0121 20 14.0964 20C15.1807 20 15.9036 19.759 16.506 19.5181C17.1084 19.2771 17.7108 18.9157 18.3133 18.3133C18.9157 17.7108 19.1566 17.2289 19.5181 16.506C19.759 15.9036 19.8795 15.1807 20 14.0964C20 13.0121 20 12.6506 20 10C20 7.3494 20 6.98795 20 5.90362C20 4.81928 19.759 4.09639 19.5181 3.49398C19.2771 2.89157 18.9157 2.28916 18.3133 1.68675C17.7108 1.08434 17.2289 0.843374 16.506 0.481928C15.9036 0.240965 15.1807 0.120482 14.0964 0C13.0121 0 12.7711 0 10 0Z" fill="currentColor"/>
        <path d="M10 4.81928C7.10843 4.81928 4.81928 7.10843 4.81928 10C4.81928 12.8916 7.10843 15.1807 10 15.1807C12.8916 15.1807 15.1807 12.8916 15.1807 10C15.1807 7.10843 12.8916 4.81928 10 4.81928ZM10 13.3735C8.19277 13.3735 6.62651 11.9277 6.62651 10C6.62651 8.19277 8.07229 6.62651 10 6.62651C11.8072 6.62651 13.3735 8.07229 13.3735 10C13.3735 11.8072 11.8072 13.3735 10 13.3735Z" fill="currentColor"/>
        <path d="M15.3012 5.90362C15.9666 5.90362 16.506 5.3642 16.506 4.6988C16.506 4.03339 15.9666 3.49398 15.3012 3.49398C14.6358 3.49398 14.0964 4.03339 14.0964 4.6988C14.0964 5.3642 14.6358 5.90362 15.3012 5.90362Z" fill="currentColor"/>
    </symbol>

    <symbol viewBox="0 0 17 9" id="arrow-up" xmlns="http://www.w3.org/2000/svg">
        <path d="M9.34159 0.323808L16.6511 7.11259C17.1163 7.54444 17.1163 8.24461 16.6511 8.67624C16.1863 9.10792 15.4324 9.10792 14.9677 8.67624L8.49988 2.66922L2.03231 8.67607C1.56732 9.10774 0.813539 9.10774 0.34874 8.67607C-0.116247 8.2444 -0.116247 7.54426 0.34874 7.11241L7.65836 0.323634C7.89087 0.107797 8.19528 5.95447e-07 8.49984 5.82134e-07C8.80455 5.68815e-07 9.10919 0.108007 9.34159 0.323808Z" fill="currentColor" />
    </symbol>

    <symbol viewBox="0 0 15 29" id="arrow-left" xmlns="http://www.w3.org/2000/svg">
        <path d="M0.539681 15.9357L11.8543 28.4048C12.5741 29.1984 13.741 29.1984 14.4604 28.4048C15.1799 27.6119 15.1799 26.3259 14.4604 25.5331L4.4487 14.4998L14.4601 3.46688C15.1796 2.67367 15.1796 1.3878 14.4601 0.59491C13.7407 -0.198303 12.5738 -0.198303 11.854 0.59491L0.539391 13.0643C0.179662 13.4609 9.53674e-07 13.9802 9.53674e-07 14.4997C9.53674e-07 15.0195 0.180012 15.5392 0.539681 15.9357Z" fill="currentColor" />
    </symbol>

    <symbol viewBox="0 0 15 29" id="arrow-right" xmlns="http://www.w3.org/2000/svg">
        <path d="M14.4603 15.9357L3.14568 28.4048C2.42594 29.1984 1.25899 29.1984 0.539592 28.4048C-0.179864 27.6119 -0.179864 26.3259 0.539592 25.5331L10.5513 14.4998L0.539883 3.46688C-0.179573 2.67367 -0.179573 1.3878 0.539883 0.59491C1.25934 -0.198303 2.42623 -0.198303 3.14598 0.59491L14.4606 13.0643C14.8203 13.4609 15 13.9802 15 14.4997C15 15.0195 14.82 15.5392 14.4603 15.9357Z" fill="currentColor" />
    </symbol>

    <symbol viewBox="0 0 68 58" id="heart" xmlns="http://www.w3.org/2000/svg">
        <path fill-rule="evenodd" clip-rule="evenodd" d="M34.8326 57.5137C34.3483 57.9098 33.6519 57.9098 33.1676 57.5137L7.67567 36.6667C2.40874 32.3596 -0.542894 25.6292 0.100478 18.7226C0.525334 14.1602 2.43892 9.7077 5.84733 6.20473C13.6104 -1.77369 26.187 -1.81512 34.0002 6.08037C41.8132 -1.81514 54.3898 -1.77365 62.1529 6.20475C65.5611 9.70768 67.475 14.1601 67.8999 18.7226C68.5431 25.6292 65.5915 32.3596 60.3247 36.6667L34.8326 57.5137ZM33.0574 8.88219L32.2372 8.03897C25.4661 1.08018 14.5034 1.08019 7.73243 8.03896C4.76425 11.0895 3.09136 14.9716 2.71935 18.9665C2.1597 24.9743 4.72963 30.8598 9.34074 34.6306L34.0001 54.7968L58.6596 34.6306C63.2706 30.8598 65.8405 24.9743 65.281 18.9665C64.909 14.9716 63.2359 11.0895 60.2678 8.03896C53.4968 1.08018 42.5341 1.08023 35.7633 8.03899L34.9426 8.88235C34.695 9.13681 34.355 9.28034 34 9.28031C33.645 9.28028 33.305 9.1367 33.0574 8.88219ZM27.4254 43.2569C24.0508 43.598 21.1201 40.9489 21.1201 37.557C21.1201 30.3162 26.9899 24.4464 34.2307 24.4464C41.4713 24.4464 47.3411 30.3162 47.3411 37.557C47.3411 40.9489 44.4104 43.598 41.0357 43.2569L34.5424 42.6004L34.5423 42.6004C34.3351 42.5794 34.1263 42.5794 33.9189 42.6004L33.9189 42.6004L27.4254 43.2569ZM23.7503 37.557C23.7503 39.3916 25.3355 40.8245 27.1608 40.64H41.3003L33.6543 39.9835C34.0376 39.9447 34.4237 39.9447 34.807 39.9835L34.8071 39.9835L41.3003 40.64C43.1258 40.8245 44.7109 39.3915 44.7109 37.557C44.7109 31.7688 40.0187 27.0766 34.2307 27.0766C28.4426 27.0766 23.7503 31.7689 23.7503 37.557ZM48.9472 29.2848C46.4167 29.2848 44.3604 27.2284 44.3604 24.698C44.3604 22.1676 46.4168 20.1113 48.9472 20.1113C51.4775 20.1113 53.5338 22.1677 53.5338 24.698C53.5338 27.2284 51.4775 29.2848 48.9472 29.2848ZM46.9906 24.698C46.9906 25.7758 47.8693 26.6546 48.9472 26.6546C50.0248 26.6546 50.9036 25.7758 50.9036 24.698C50.9036 23.6203 50.0248 22.7415 48.9472 22.7415C47.8693 22.7415 46.9906 23.6203 46.9906 24.698ZM14.4658 24.698C14.4658 27.2284 16.5223 29.2848 19.0525 29.2848C21.5828 29.2848 23.6393 27.2284 23.6393 24.698C23.6393 22.1676 21.5827 20.1113 19.0525 20.1113C16.5224 20.1113 14.4658 22.1676 14.4658 24.698ZM19.0525 26.6546C17.9749 26.6546 17.096 25.7758 17.096 24.698C17.096 23.6203 17.9749 22.7415 19.0525 22.7415C20.1302 22.7415 21.0091 23.6204 21.0091 24.698C21.0091 25.7758 20.1302 26.6546 19.0525 26.6546ZM40.2271 22.004C37.2972 22.004 34.916 19.6225 34.916 16.6928C34.916 13.763 37.2972 11.3816 40.2271 11.3816C43.1567 11.3816 45.5382 13.763 45.5382 16.6928C45.5382 19.6226 43.1567 22.004 40.2271 22.004ZM37.5462 16.6928C37.5462 18.17 38.7499 19.3738 40.2271 19.3738C41.7041 19.3738 42.908 18.1699 42.908 16.6928C42.908 15.2156 41.7041 14.0118 40.2271 14.0118C38.7499 14.0118 37.5462 15.2156 37.5462 16.6928ZM22.4878 16.6928C22.4878 19.6226 24.8693 22.004 27.799 22.004C30.7288 22.004 33.1101 19.6226 33.1101 16.6928C33.1101 13.763 30.7288 11.3816 27.799 11.3816C24.8693 11.3816 22.4878 13.763 22.4878 16.6928ZM27.799 19.3738C26.3219 19.3738 25.118 18.1699 25.118 16.6928C25.118 15.2156 26.3219 14.0118 27.799 14.0118C29.2761 14.0118 30.4799 15.2156 30.4799 16.6928C30.4799 18.17 29.2761 19.3738 27.799 19.3738Z" fill="currentColor" />
    </symbol>

    <symbol viewBox="0 0 60 48" id="cat" xmlns="http://www.w3.org/2000/svg">
        <path fill-rule="evenodd" clip-rule="evenodd" d="M54.7349 21.0037C56.1428 20.8531 57.5662 20.9466 58.9424 21.28C59.2156 21.3478 59.4506 21.5213 59.5959 21.7623C59.7412 22.0034 59.7848 22.2922 59.7172 22.5654C59.6497 22.8386 59.4763 23.0738 59.2354 23.2193C58.9945 23.3648 58.7057 23.4086 58.4324 23.3412C57.4657 23.1109 56.4709 23.0214 55.4786 23.0756C56.1809 25.2994 56.4725 27.6324 56.3393 29.9606C57.1608 30.2942 57.9444 30.7145 58.6768 31.2144C58.7915 31.2937 58.8893 31.3949 58.9648 31.5121C59.0403 31.6294 59.0918 31.7604 59.1165 31.8976C59.1412 32.0348 59.1385 32.1756 59.1086 32.3118C59.0787 32.448 59.0223 32.5769 58.9424 32.6912C58.7809 32.9208 58.5361 33.0782 58.2602 33.1298C57.9842 33.1814 57.6991 33.1232 57.4655 32.9675C57.014 32.6564 56.5379 32.3828 56.0418 32.1494C55.8642 33.0577 55.5714 33.9396 55.1705 34.7737C48.9018 46.5994 32.4861 47.0137 30.2124 47.0137H29.7449C27.5136 47.0137 11.098 46.5994 4.82927 34.7737C4.42838 33.9396 4.1356 33.0577 3.95802 32.1494C3.46193 32.3828 2.98576 32.6564 2.53427 32.9675C2.3007 33.1232 2.01555 33.1814 1.73964 33.1298C1.46373 33.0782 1.21891 32.9208 1.0574 32.6912C0.977539 32.5769 0.921049 32.448 0.891172 32.3118C0.861296 32.1756 0.858622 32.0348 0.883304 31.8976C0.907987 31.7604 0.959539 31.6294 1.035 31.5121C1.11046 31.3949 1.20834 31.2937 1.32302 31.2144C2.05538 30.7145 2.83898 30.2942 3.66052 29.9606C3.52732 27.6324 3.81894 25.2994 4.52115 23.0756C3.52891 23.0214 2.53405 23.1109 1.5674 23.3412C1.29414 23.4086 1.00531 23.3648 0.764381 23.2193C0.523452 23.0738 0.350143 22.8386 0.282546 22.5654C0.214949 22.2922 0.258595 22.0034 0.403891 21.7623C0.549187 21.5213 0.784244 21.3478 1.0574 21.28C2.43357 20.9466 3.85695 20.8531 5.2649 21.0037C5.5704 20.2395 5.91438 19.4913 6.29552 18.7619C6.40269 18.5673 6.42938 18.3384 6.3699 18.1244C5.3924 14.6925 3.36302 6.31999 5.79615 2.57999C6.06154 2.17517 6.40833 1.83006 6.81444 1.56665C7.22054 1.30323 7.67705 1.12727 8.1549 1.04999C11.5655 0.455041 16.878 4.01436 19.7468 6.18186C19.8579 6.26495 19.9879 6.31914 20.1252 6.33956C20.2624 6.35998 20.4026 6.34599 20.5331 6.29886C22.98 5.31673 25.5507 4.67675 28.1725 4.39698C29.3899 4.33323 30.6099 4.33323 31.8274 4.39698C34.4492 4.67675 37.0198 5.31673 39.4668 6.29886C39.5973 6.34599 39.7374 6.35998 39.8746 6.33957C40.0119 6.31916 40.1419 6.26499 40.253 6.18193C43.1218 4.01443 48.4555 0.455052 51.8449 1.05005C52.3227 1.12734 52.7793 1.30329 53.1854 1.56671C53.5915 1.83013 53.9383 2.17524 54.2036 2.58005C56.6368 6.31999 54.6074 14.6925 53.6299 18.1244C53.5704 18.3384 53.5971 18.5673 53.7043 18.7619C54.0854 19.4913 54.4294 20.2395 54.7349 21.0037ZM54.023 31.4269C52.1075 30.9253 50.1213 30.7493 48.1474 30.9062C48.0093 30.923 47.8692 30.9124 47.7352 30.875C47.6011 30.8376 47.4758 30.7741 47.3663 30.6883C47.2568 30.6025 47.1652 30.4959 47.0969 30.3747C47.0286 30.2535 46.9848 30.12 46.968 29.9819C46.9513 29.8437 46.9619 29.7037 46.9993 29.5696C47.0367 29.4356 47.1001 29.3102 47.186 29.2007C47.2718 29.0912 47.3784 28.9997 47.4996 28.9314C47.6208 28.863 47.7543 28.8192 47.8924 28.8025C50.0216 28.6048 52.1688 28.7628 54.2461 29.27C54.2878 27.2635 53.9823 25.2649 53.343 23.3625C50.9131 23.9208 48.6005 24.9026 46.5111 26.2631C46.2801 26.4237 45.9947 26.486 45.7177 26.4362C45.4407 26.3864 45.1949 26.2286 45.0343 25.9975C44.8736 25.7664 44.8114 25.481 44.8612 25.204C44.911 24.9271 45.0688 24.6812 45.2999 24.5206C47.5257 23.0449 49.9925 21.9697 52.5886 21.3437C52.3549 20.8231 52.1105 20.2919 51.8236 19.75C51.46 19.0686 51.3725 18.2735 51.5793 17.5294C53.0349 12.4719 54.0124 6.19249 52.4186 3.73811C52.3166 3.57683 52.1796 3.44057 52.0177 3.33941C51.8559 3.23826 51.6733 3.1748 51.4836 3.15374C49.6455 2.82436 45.8205 4.64124 41.528 7.88186C41.1323 8.18419 40.6657 8.38005 40.1728 8.45073C39.6799 8.52142 39.1771 8.46457 38.7124 8.28561C38.213 8.09436 37.4374 7.81811 36.5343 7.53124V11.7812C36.5343 12.063 36.4223 12.3333 36.2231 12.5325C36.0238 12.7318 35.7536 12.8437 35.4718 12.8437C35.19 12.8437 34.9197 12.7318 34.7205 12.5325C34.5212 12.3333 34.4093 12.063 34.4093 11.7812V6.94681C33.5315 6.72223 32.6354 6.57644 31.7318 6.51119C31.5086 6.50061 31.2855 6.50061 31.0624 6.50061V15.7763C31.0624 16.0581 30.9504 16.3283 30.7512 16.5276C30.5519 16.7269 30.2817 16.8388 29.9999 16.8388C29.7181 16.8388 29.4478 16.7269 29.2486 16.5276C29.0493 16.3283 28.9374 16.0581 28.9374 15.7763V6.50067C28.7143 6.50067 28.4911 6.50067 28.268 6.51124C27.3643 6.5765 26.4683 6.72228 25.5905 6.94686V11.7812C25.5905 12.063 25.4786 12.3333 25.2793 12.5325C25.0801 12.7318 24.8098 12.8437 24.528 12.8437C24.2462 12.8437 23.976 12.7318 23.7767 12.5325C23.5775 12.3333 23.4655 12.063 23.4655 11.7812V7.53124C22.5624 7.81811 21.7868 8.09436 21.2874 8.28561C20.8226 8.4642 20.3199 8.52085 19.827 8.45017C19.3342 8.3795 18.8676 8.18386 18.4718 7.88186C14.5086 4.88561 10.9598 3.11124 8.98358 3.11124C8.8267 3.10857 8.66998 3.12282 8.51615 3.15374C8.32685 3.17619 8.14487 3.24022 7.98322 3.34125C7.82158 3.44228 7.68427 3.5778 7.58115 3.73811C5.9874 6.19249 6.9649 12.4719 8.42052 17.5294C8.62728 18.2735 8.53977 19.0686 8.17615 19.75C7.8999 20.2919 7.6449 20.8231 7.41115 21.3437C10.0073 21.9697 12.4741 23.0449 14.6999 24.5206C14.931 24.6812 15.0888 24.9271 15.1386 25.204C15.1884 25.481 15.1261 25.7664 14.9655 25.9975C14.8049 26.2286 14.5591 26.3864 14.2821 26.4362C14.0051 26.486 13.7197 26.4237 13.4886 26.2631C11.3993 24.9026 9.0867 23.9208 6.65677 23.3625C6.0175 25.2649 5.71196 27.2635 5.75365 29.27C7.83098 28.7628 9.97821 28.6048 12.1074 28.8025C12.2455 28.8192 12.379 28.863 12.5002 28.9314C12.6214 28.9997 12.728 29.0912 12.8138 29.2007C12.8997 29.3102 12.9631 29.4356 13.0005 29.5696C13.0379 29.7037 13.0485 29.8437 13.0318 29.9819C13.015 30.12 12.9712 30.2535 12.9029 30.3747C12.8346 30.4959 12.743 30.6025 12.6335 30.6883C12.524 30.7741 12.3987 30.8376 12.2646 30.875C12.1306 30.9124 11.9905 30.923 11.8524 30.9062C9.87852 30.7494 7.89232 30.9254 5.97677 31.4269C6.10537 32.2411 6.35236 33.0322 6.7099 33.775C12.6421 44.965 29.5145 44.8908 29.9707 44.8888L29.9786 44.8887C30.1805 44.8994 47.3186 45.0587 53.2899 33.775C53.6474 33.0322 53.8944 32.2411 54.023 31.4269ZM38.5798 31.7075C38.7187 31.7183 38.8541 31.7565 38.9781 31.82C39.1028 31.8823 39.2139 31.9686 39.3049 32.0741C39.396 32.1796 39.4653 32.302 39.5088 32.4344C39.5522 32.5668 39.569 32.7065 39.5582 32.8454C39.5474 32.9843 39.5091 33.1197 39.4456 33.2438C38.2556 35.645 36.3538 37.0156 34.25 37.0156C33.4143 36.99 32.5958 36.7714 31.8585 36.3769C31.1212 35.9825 30.4852 35.4229 30 34.7419C29.5149 35.4229 28.8788 35.9825 28.1415 36.3769C27.4043 36.7714 26.5858 36.99 25.75 37.0156C23.6463 37.0156 21.7444 35.645 20.5544 33.2438C20.4293 32.9932 20.4086 32.7032 20.4966 32.4374C20.5847 32.1715 20.7744 31.9513 21.0244 31.8249C21.2743 31.6986 21.5641 31.6763 21.8305 31.763C22.0968 31.8496 22.318 32.0382 22.4456 32.2875C23.2744 33.945 24.475 34.8906 25.75 34.8906C26.4492 34.8174 27.1154 34.5552 27.6769 34.1322C28.2384 33.7092 28.6742 33.1413 28.9375 32.4894V30.3006C28.7496 30.1947 28.5778 30.0623 28.4275 29.9075L27.0144 28.3563C26.7344 28.0532 26.5489 27.675 26.4806 27.2681C26.4124 26.8611 26.4643 26.4431 26.6301 26.0653C26.7959 25.6874 27.0684 25.3662 27.414 25.1409C27.7597 24.9156 28.1636 24.796 28.5763 24.7969H31.4238C31.8364 24.796 32.2403 24.9156 32.586 25.1409C32.9317 25.3662 33.2041 25.6874 33.3699 26.0653C33.5357 26.4431 33.5877 26.8611 33.5194 27.2681C33.4511 27.675 33.2656 28.0532 32.9856 28.3563L31.5725 29.9075C31.4222 30.0623 31.2504 30.1947 31.0625 30.3006V32.4894C31.3258 33.1413 31.7616 33.7092 32.3231 34.1322C32.8847 34.5552 33.5508 34.8174 34.25 34.8906C35.525 34.8906 36.7256 33.945 37.5544 32.2875C37.6167 32.1629 37.703 32.0518 37.8085 31.9607C37.9139 31.8696 38.0364 31.8004 38.1688 31.7569C38.3012 31.7134 38.4409 31.6966 38.5798 31.7075ZM22.7551 21.4024C22.9169 21.6331 23.1638 21.7901 23.4413 21.8389C23.7189 21.8876 24.0045 21.8241 24.2352 21.6623C24.466 21.5005 24.623 21.2536 24.6717 20.976C24.7205 20.6985 24.657 20.4129 24.4952 20.1821C24.0624 19.4898 23.4659 18.9146 22.7583 18.5074C22.0507 18.1001 21.2537 17.8734 20.4376 17.847C19.6216 17.8734 18.8246 18.1001 18.117 18.5074C17.4093 18.9146 16.8128 19.4898 16.3801 20.1822C16.2183 20.4129 16.1548 20.6985 16.2035 20.9761C16.2523 21.2536 16.4093 21.5005 16.64 21.6623C16.8708 21.8241 17.1563 21.8876 17.4339 21.8389C17.7115 21.7901 17.9583 21.6331 18.1202 21.4024C18.3456 20.9841 18.6801 20.6346 19.0881 20.391C19.4961 20.1474 19.9624 20.0187 20.4376 20.0187C20.9128 20.0187 21.3792 20.1474 21.7872 20.391C22.1952 20.6346 22.5297 20.984 22.7551 21.4024ZM37.242 18.5074C37.9496 18.1001 38.7466 17.8734 39.5626 17.847C40.3787 17.8734 41.1757 18.1001 41.8833 18.5074C42.5909 18.9146 43.1874 19.4898 43.6202 20.1822C43.782 20.4129 43.8455 20.6985 43.7968 20.9761C43.748 21.2536 43.591 21.5005 43.3602 21.6623C43.1295 21.8241 42.8439 21.8876 42.5663 21.8389C42.2888 21.7901 42.0419 21.6331 41.8801 21.4024C41.6547 20.9841 41.3202 20.6346 40.9122 20.391C40.5042 20.1474 40.0378 20.0187 39.5626 20.0187C39.0874 20.0187 38.6211 20.1474 38.2131 20.391C37.8051 20.6346 37.4706 20.9841 37.2452 21.4024C37.0834 21.6331 36.8365 21.7901 36.5589 21.8389C36.2813 21.8876 35.9958 21.8241 35.765 21.6623C35.5343 21.5005 35.3773 21.2536 35.3285 20.9761C35.2798 20.6985 35.3433 20.4129 35.5051 20.1822C35.9378 19.4898 36.5343 18.9146 37.242 18.5074Z" fill="currentColor" />
    </symbol>

    <symbol viewBox="0 0 105 100" id="foot" xmlns="http://www.w3.org/2000/svg">
        <path fill-rule="evenodd" clip-rule="evenodd" d="M64.1641 40.0506C57.0425 39.1915 52.3531 29.5384 53.6881 18.4955C55.0228 7.45249 61.8787 -0.803617 69.0071 0.0623501C76.1287 0.921481 80.8182 10.5746 79.4835 21.6178C78.1485 32.6607 71.2857 40.9098 64.1641 40.0506ZM47.8802 18.817C50.4383 29.6434 46.8528 39.7574 39.8712 41.4059C32.8895 43.0543 25.1529 35.6156 22.595 24.7889C20.0372 13.9625 23.6224 3.84824 30.6041 2.20005C37.586 0.558444 45.3223 7.99741 47.8802 18.817ZM79.015 61.2987C73.2982 57.6107 73.2982 47.4408 79.022 38.577C84.7459 29.7132 94.0198 25.5152 99.7366 29.2035C105.453 32.8915 105.453 43.0614 99.7296 51.9251C94.0059 60.7889 84.7318 64.9867 79.015 61.2987ZM24.9363 41.5943C31.6104 49.7667 32.7496 59.8739 27.48 64.1764C22.2105 68.4791 12.5242 65.336 5.857 57.1707C-0.817321 48.9984 -1.95648 38.8912 3.31305 34.5887C8.5755 30.286 18.262 33.4222 24.9363 41.5943ZM52.4439 48.3836C44.9896 48.9979 41.6111 53.9186 37.3511 60.1236C35.2169 63.2323 32.8611 66.6632 29.6607 70.0367C15.5923 84.8656 19.1148 96.8446 28.3538 98.8492C33.3314 99.9322 37.7073 97.3329 42.23 94.6466C46.1082 92.3429 50.0941 89.9754 54.6595 89.8109H54.7503L54.7657 89.8102L54.7933 89.8075L54.7991 89.8067C54.8138 89.8053 54.8282 89.8038 54.8411 89.8038C59.398 89.4588 63.6253 91.3685 67.7381 93.2264C72.532 95.3922 77.17 97.4876 81.9922 95.8597C90.9588 92.8353 93.1185 80.5418 77.4847 67.3685C73.9329 64.3736 71.2132 61.2271 68.7486 58.3758C63.827 52.6817 59.9227 48.1649 52.4439 48.3836Z" fill="currentColor" />
    </symbol>

    <symbol viewBox="0 0 23 23" id="close-modal" xmlns="http://www.w3.org/2000/svg">
        <path d="M22.296 0.703825C21.7495 0.157319 20.873 0.157319 20.3265 0.703825L11.4999 9.53042L2.67331 0.703825C2.12681 0.157319 1.25033 0.157319 0.703825 0.703825C0.157319 1.25033 0.157319 2.12681 0.703825 2.67331L9.53042 11.4999L0.703825 20.3265C0.157319 20.873 0.157319 21.7495 0.703825 22.296C0.971923 22.5641 1.33282 22.7085 1.68341 22.7085C2.034 22.7085 2.3949 22.5744 2.663 22.296L11.4896 13.4694L20.3162 22.296C20.5843 22.5641 20.9452 22.7085 21.2958 22.7085C21.6567 22.7085 22.0073 22.5744 22.2754 22.296C22.8219 21.7495 22.8219 20.873 22.2754 20.3265L13.4694 11.4999L22.296 2.67331C22.8425 2.12681 22.8425 1.25033 22.296 0.703825Z" fill="currentColor" />
    </symbol>


    <symbol viewBox="" id="id" xmlns="http://www.w3.org/2000/svg">
        
    </symbol>
</svg>
